<svg width="32" height="33" viewBox="0 0 32 33" fill="none" xmlns="http://www.w3.org/2000/svg">
<path fill-rule="evenodd" clip-rule="evenodd" d="M23.2578 1.51109C22.9479 2.42101 22.5778 3.57076 22.2579 4.40085V4.4006C22.1381 4.39081 22.0176 4.39081 21.8978 4.4006H16.3985C16.2787 4.39081 16.1582 4.39081 16.0384 4.4006C15.7484 3.57077 15.3786 2.40096 15.0386 1.51083V1.51109C14.9201 1.15253 14.9851 0.758578 15.2126 0.457241C15.4401 0.155685 15.8011 -0.0148073 16.1785 0.00101161H22.1777C22.5446 0.00502901 22.8876 0.183549 23.101 0.482097C23.3141 0.780388 23.3724 1.16255 23.2577 1.51107L23.2578 1.51109Z" fill="#179F91"/>
<path fill-rule="evenodd" clip-rule="evenodd" d="M8.50988 17.999L6.75 18.9991C6.90668 18.6416 7.1083 18.3056 7.3501 17.999L16.4288 6.65063H21.9281C21.9281 6.65063 28.0974 14.3801 30.3075 17.1197H30.2475L20.5588 22.3789L20.559 22.3792C20.4079 22.4628 20.2467 22.5268 20.0789 22.569V22.3591C19.8181 21.1863 19.0977 20.1671 18.0793 19.5294L15.4695 17.9995C14.625 17.4835 13.6747 17.1656 12.6899 17.0697C11.2329 16.92 9.76655 17.2462 8.51036 17.9995L8.50988 17.999Z" fill="#179F91"/>
<path fill-rule="evenodd" clip-rule="evenodd" d="M31.9972 22.0788C32.0351 22.8355 31.6846 23.5592 31.0672 23.9986C30.4673 24.4586 21.6986 30.9979 21.4685 31.1476C20.5121 31.8389 19.3297 32.1425 18.1589 31.9976L11.4392 31.1177C10.7093 31.0477 10.0794 30.9078 9.43959 30.9078L1.1406 30.9076C0.830262 30.9051 0.534228 30.7773 0.319576 30.5533C0.104899 30.3291 -0.0101015 30.0278 0.000697315 29.7177V23.9984C0.00496579 23.6966 0.122724 23.4073 0.330877 23.1883C0.544802 22.9731 0.837069 22.8541 1.14066 22.8584H4.61021L9.6096 19.9387H9.60985C10.2562 19.5661 10.9838 19.3567 11.7296 19.3289C12.349 19.3354 12.9556 19.5044 13.4894 19.8187L16.9989 21.7587C17.3585 21.959 17.6191 22.2992 17.7188 22.6985C17.8277 23.0929 17.7622 23.5153 17.539 23.8582C17.3806 24.1186 17.1332 24.3127 16.8427 24.4046C16.5522 24.4965 16.2384 24.4799 15.9591 24.3582L12.7394 22.9985C12.4607 22.8813 12.1471 22.8783 11.8664 22.9908C11.5857 23.103 11.3605 23.3212 11.2397 23.5984C11.1219 23.8784 11.1189 24.1935 11.2312 24.4759C11.3431 24.7581 11.5618 24.9851 11.8395 25.1082L15.0592 26.4781C15.8562 26.82 16.7511 26.8585 17.5747 26.5858C18.398 26.3131 19.0932 25.7484 19.5286 24.9982C19.7302 24.9979 19.9311 24.9778 20.1287 24.9381C20.4724 24.8995 20.8091 24.8119 21.1285 24.6783C21.3013 24.616 21.4688 24.5389 21.6285 24.4483L30.2373 19.7788L30.9571 20.2586C31.576 20.6628 31.9629 21.34 31.9971 22.0784L31.9972 22.0788Z" fill="#179F91"/>
</svg>
