<svg width="32" height="32" viewBox="0 0 32 32" fill="none" xmlns="http://www.w3.org/2000/svg">
<path d="M22.499 30.6237C21.528 31.0564 20.5075 31.3947 19.4501 31.6273L19.4275 31.6318C18.3222 31.8728 17.1749 32.0007 16.0001 32.0007C7.16344 32.0007 0 24.838 0 16.0006C0 11.5827 1.79093 7.58211 4.68602 4.68675C7.58111 1.79166 11.5819 0.000732422 15.9999 0.000732422C20.4178 0.000732422 24.4184 1.79166 27.3138 4.68675C30.2089 7.58184 31.9998 11.5826 31.9998 16.0006C31.9998 17.1828 31.8703 18.3372 31.6264 19.448C31.3937 20.5076 31.0555 21.528 30.6227 22.4996C30.4912 22.336 30.3509 22.1795 30.2026 22.0309C30.0639 21.8922 29.9179 21.7607 29.7656 21.6359C30.0839 20.8584 30.3391 20.0467 30.5237 19.2075C30.7506 18.1773 30.8706 17.103 30.8706 16.0007C30.8706 11.8944 29.2063 8.17639 26.5155 5.4854C23.8247 2.7946 20.1065 1.13026 16.0002 1.13026C11.894 1.13026 8.17594 2.7946 5.48495 5.4854C2.79415 8.17619 1.12981 11.8943 1.12981 16.0007C1.12981 19.2671 2.18281 22.2869 3.96796 24.7405C4.2064 23.2595 4.91381 21.9299 5.93192 20.9116L5.96527 20.8809C7.2299 19.6322 8.96382 18.8592 10.8682 18.8592H11.8994C12.0105 18.8592 12.1137 18.8912 12.2014 18.9469C12.7734 19.2591 13.3847 19.5036 14.0205 19.6667C14.647 19.8276 15.3108 19.9135 16.001 19.9135C16.6911 19.9135 17.3549 19.8276 17.9815 19.6667C18.6288 19.5004 19.2506 19.2499 19.8307 18.9298C19.9168 18.8828 20.0098 18.8605 20.1019 18.8605L21.1326 18.8592C21.9485 18.8592 22.7379 19.0033 23.4745 19.2672C24.1997 19.5275 24.8709 19.904 25.4642 20.3749C24.1294 20.5251 22.932 21.1304 22.031 22.0311C20.9856 23.0765 20.3383 24.5216 20.3383 26.1168C20.3383 27.712 20.9853 29.1576 22.0305 30.2031C22.1791 30.3517 22.3356 30.4916 22.4992 30.6232L22.499 30.6237ZM29.4043 22.8296C28.5635 21.9888 27.4004 21.4681 26.1166 21.4681C24.8331 21.4681 23.6703 21.9891 22.8295 22.8299C21.9887 23.6708 21.4677 24.8335 21.4677 26.1171C21.4677 27.4006 21.9884 28.5639 22.8292 29.4047C23.6701 30.2456 24.8331 30.7666 26.1169 30.7666C27.4023 30.7666 28.5651 30.2469 29.4046 29.4068C30.2467 28.5652 30.7664 27.4025 30.7664 26.117C30.7664 24.8334 30.2454 23.6702 29.4046 22.8293L29.4043 22.8296ZM25.552 23.0009C25.552 22.6892 25.8049 22.4363 26.1166 22.4363C26.4283 22.4363 26.6812 22.6892 26.6812 23.0009V25.5528H29.2334C29.5451 25.5528 29.7979 25.8057 29.7979 26.1174C29.7979 26.4291 29.5451 26.6819 29.2334 26.6819H26.6812V29.2341C26.6812 29.5458 26.4283 29.7987 26.1166 29.7987C25.8049 29.7987 25.552 29.5458 25.552 29.2341V26.6819H23.0001C22.6884 26.6819 22.4355 26.4291 22.4355 26.1174C22.4355 25.8057 22.6884 25.5528 23.0001 25.5528H25.552V23.0009ZM16.0008 5.56149C19.5471 5.56149 22.4223 8.43688 22.4223 11.9832C22.4223 15.5264 19.5444 18.4043 16.0008 18.4043C12.4578 18.4043 9.57902 15.5264 9.57902 11.9832C9.57902 8.43634 12.4542 5.56149 16.0008 5.56149Z" fill="#00245B"/>
</svg>
