<svg width="19" height="32" viewBox="0 0 19 32" fill="none" xmlns="http://www.w3.org/2000/svg">
<path fill-rule="evenodd" clip-rule="evenodd" d="M7.99744 0C6.24496 0.00966035 4.56798 0.714428 3.33461 1.95921C2.10107 3.20406 1.4122 4.88747 1.41862 6.63994C1.42529 7.97606 1.83609 9.27861 2.59722 10.3767C3.35834 11.4746 4.43408 12.3164 5.68304 12.7912L5.66947 8.11249C5.66441 6.88655 6.71488 5.89955 8.01372 5.89955C9.3128 5.89955 10.3587 6.88655 10.3587 8.11249V12.8061V12.8059C11.6187 12.3332 12.7046 11.4872 13.4712 10.3811C14.238 9.2752 14.6491 7.96158 14.6498 6.61557V6.56658V6.56681C14.6369 4.81433 13.9292 3.13846 12.682 1.90745C11.4349 0.676211 9.75007 -0.0097174 7.99759 0.000174952L7.99744 0ZM8.01538 6.64495C7.1455 6.64495 6.44279 7.30579 6.44532 8.12692L6.47753 19.3194C6.47753 19.3194 6.46649 19.8836 6.30548 19.8875C6.27581 19.8882 6.23763 19.8638 6.20174 19.8342L6.20036 19.8328L2.31756 16.13C1.786 15.6231 0.969666 15.6231 0.489887 16.1282L0.3045 16.3239C-0.175532 16.829 -0.0455778 17.564 0.399266 18.1484L5.97037 25.4681C5.97037 25.4681 6.08859 25.6319 6.12884 25.7239C6.19692 25.8794 6.26409 26.2147 6.26409 26.2147L6.38002 27.8152H5.02618C4.72924 27.8152 4.49025 28.2011 4.49025 28.6807V31.1345C4.49025 31.614 4.72924 32 5.02618 32H18.4338C18.7308 32 18.9698 31.614 18.9698 31.1345V28.6807C18.9698 28.2011 18.7308 27.8152 18.4338 27.8152H17.1278C17.1021 27.3184 17.0908 26.7116 17.1582 26.3127C17.2782 25.6001 17.4823 25.7982 17.8942 24.2737C18.3062 22.7491 18.115 16.7667 18.115 16.7667C18.1873 15.9441 17.4747 15.2757 16.6795 15.2757C15.9603 15.2757 15.408 15.822 15.2762 16.5367L15.2737 16.167C15.2737 16.167 15.2985 14.3607 13.8297 14.3315C13.0729 14.3166 12.5055 14.9629 12.4264 15.762L12.4161 14.9505C12.4055 14.1112 11.7849 13.4352 11.001 13.4352C10.2236 13.4352 9.59891 14.1009 9.58808 14.9307L9.58233 14.8456L9.58624 8.12649C9.5867 7.3056 8.88606 6.64452 8.01618 6.64452L8.01538 6.64495Z" fill="#006355"/>
</svg>
