<svg width="27" height="33" viewBox="0 0 27 33" fill="none" xmlns="http://www.w3.org/2000/svg">
<path d="M26.6591 3.65737L25.231 2.86967L24.9566 1.2587C24.911 0.984275 24.6466 0.796172 24.3722 0.842032C24.0977 0.887652 23.9096 1.15202 23.9555 1.42644L24.2199 2.96117L23.7321 3.31187L23.5491 2.2549C23.5035 1.98047 23.2391 1.79237 22.9647 1.83823C22.6903 1.88385 22.5022 2.14822 22.548 2.42264L22.8124 3.96253L12.9183 10.9956C12.6897 11.1582 12.6338 11.4734 12.7964 11.7019C12.8979 11.839 13.0505 11.9153 13.213 11.9153C13.3146 11.9153 13.4163 11.8849 13.5078 11.8187L23.402 4.78557L24.7638 5.5326C24.8401 5.57331 24.9264 5.59366 25.0078 5.59366C25.1856 5.59366 25.3634 5.49704 25.4549 5.32929C25.592 5.08528 25.5005 4.77529 25.2567 4.6382L24.3268 4.12491L24.8097 3.78451L26.1766 4.53669C26.2529 4.5774 26.3392 4.59775 26.4206 4.59775C26.5985 4.59775 26.7763 4.50113 26.8677 4.33338C26.9948 4.0999 26.9082 3.78991 26.6593 3.65774L26.6591 3.65737Z" fill="#179F91"/>
<path d="M17.6642 10.0451L15.8907 11.3054C15.8958 11.341 15.8958 11.3765 15.8958 11.4121C15.8958 12.8909 14.6914 14.0953 13.2126 14.0953C11.7337 14.0953 10.5294 12.8909 10.5294 11.4121C10.5294 9.92814 11.7337 8.72887 13.2126 8.72887C14.2747 8.72887 15.1944 9.34372 15.6265 10.2432L17.2476 9.09475C16.4447 7.69735 14.9354 6.7522 13.2126 6.7522C10.6463 6.7522 8.55762 8.84069 8.55762 11.4121C8.55762 13.9783 10.6461 16.0671 13.2126 16.0671C15.7788 16.0671 17.8676 13.9786 17.8676 11.4121C17.8676 10.9344 17.7964 10.477 17.6642 10.0451Z" fill="#179F91"/>
<path d="M12.7969 12.881C12.868 12.9776 12.9646 13.0436 13.0713 13.0691C12.2176 12.9979 11.5469 12.2762 11.5469 11.4125C11.5469 10.4926 12.2939 9.74554 13.2138 9.74554C13.9353 9.74554 14.5503 10.2081 14.7789 10.8484L12.919 12.1697C12.69 12.3321 12.6341 12.6522 12.7969 12.881Z" fill="#179F91"/>
<path d="M20.1755 8.2615L18.5289 9.43035C18.7575 10.0504 18.8845 10.7159 18.8845 11.4122C18.8845 14.5376 16.3386 17.0834 13.2133 17.0834C10.083 17.0834 7.54207 14.5375 7.54207 11.4122C7.54207 8.28186 10.083 5.7358 13.2133 5.7358C15.2765 5.7358 17.0857 6.84356 18.0816 8.50017L19.6874 7.35683C18.3357 5.2021 15.9372 3.76404 13.2131 3.76404C8.99517 3.76404 5.57031 7.19423 5.57031 11.4122C5.57031 15.625 8.99541 19.055 13.2131 19.055C17.4259 19.055 20.8559 15.6248 20.8559 11.4122C20.8559 10.2895 20.6121 9.22247 20.1751 8.2618L20.1755 8.2615Z" fill="#179F91"/>
<path d="M7.26728 28.7714H0.554C0.249162 28.7714 0 29.0204 0 29.3254V31.2261C0 31.5309 0.248922 31.7801 0.554 31.7801H8.79632C8.903 31.7801 8.99448 31.7445 9.08081 31.6886C8.22196 30.9161 7.58681 29.9098 7.26674 28.7714L7.26728 28.7714Z" fill="#179F91"/>
<path d="M25.871 28.7715H19.1529C18.8329 29.9099 18.1974 30.9159 17.3438 31.6832C17.4301 31.734 17.5216 31.7747 17.6282 31.7747H25.8706C26.1754 31.7747 26.4246 31.5258 26.4246 31.2207V29.3201C26.4246 29.0207 26.1754 28.7715 25.8706 28.7715L25.871 28.7715Z" fill="#179F91"/>
<path d="M23.0614 6.20298L21.0186 7.66147C21.5674 8.79474 21.8723 10.0703 21.8723 11.4117C21.8723 16.1834 17.9899 20.0709 13.2131 20.0709C8.43626 20.0709 4.55395 16.1833 4.55395 11.4117C4.55395 6.63486 8.43638 2.74716 13.2131 2.74716C16.2826 2.74716 18.981 4.35298 20.5157 6.76669L22.5434 5.32341C20.5566 2.27994 17.1213 0.267456 13.2134 0.267456C7.05953 0.267456 2.06934 5.25765 2.06934 11.4115C2.06934 16.3562 5.3014 20.5385 9.76305 21.992C10.7489 21.3265 11.9381 20.9351 13.2136 20.9351C14.4891 20.9351 15.6783 21.3265 16.6642 21.992C21.1259 20.5387 24.3531 16.3563 24.3531 11.4115C24.3531 9.53124 23.8854 7.75766 23.0621 6.20256L23.0614 6.20298Z" fill="#179F91"/>
<path d="M13.2126 21.9515C10.3617 21.9515 8.05469 24.2637 8.05469 27.1095C8.05469 29.9605 10.3668 32.2674 13.2126 32.2674C16.0585 32.2674 18.3706 29.9553 18.3706 27.1095C18.3706 24.2637 16.0634 21.9515 13.2126 21.9515ZM13.2126 26.6014C14.1934 26.6014 14.9862 27.3991 14.9862 28.3749C14.9862 29.1779 14.4477 29.8486 13.7208 30.0671V30.5142C13.7208 30.7938 13.4922 31.0224 13.2126 31.0224C12.933 31.0224 12.7045 30.7938 12.7045 30.5142V30.0671C11.9726 29.8486 11.439 29.1779 11.439 28.3749C11.439 28.0954 11.6676 27.8668 11.9472 27.8668C12.2267 27.8668 12.4553 28.0954 12.4553 28.3749C12.4553 28.7916 12.7957 29.132 13.2124 29.132C13.6293 29.132 13.9697 28.7968 13.9697 28.3801C13.9697 27.9634 13.6293 27.623 13.2126 27.623C12.2319 27.623 11.4391 26.8252 11.4391 25.8494C11.4391 25.0465 11.9776 24.3758 12.7045 24.1572V23.7102C12.7045 23.4306 12.9331 23.202 13.2127 23.202C13.4922 23.202 13.7208 23.4306 13.7208 23.7102V24.1572C14.4526 24.3757 14.9863 25.0465 14.9863 25.8494C14.9863 26.129 14.7577 26.3576 14.4781 26.3576C14.1985 26.3576 13.97 26.129 13.97 25.8494C13.97 25.4328 13.6296 25.0923 13.2129 25.0923C12.7962 25.0923 12.4558 25.4327 12.4558 25.8494C12.4553 26.2661 12.796 26.6014 13.2126 26.6014Z" fill="#179F91"/>
<path d="M7.14075 24.7515L8.32481 22.536C7.44068 22.1497 6.61226 21.6619 5.85499 21.0826L3.89844 24.7517L7.14075 24.7515Z" fill="#179F91"/>
<path d="M22.5231 24.7515L20.5665 21.0824C19.8094 21.6565 18.9861 22.1445 18.0967 22.5357L19.2807 24.7513L22.5231 24.7515Z" fill="#179F91"/>
<path d="M7.07338 27.7551C7.04788 27.5418 7.03267 27.3282 7.03267 27.1097C7.03267 26.6471 7.08859 26.2 7.18521 25.7631H2.75908C2.45424 25.7631 2.20508 26.012 2.20508 26.3171V27.75H7.07339L7.07338 27.7551Z" fill="#179F91"/>
<path d="M19.3513 27.7552H24.2145V26.3222C24.2145 26.0174 23.9656 25.7682 23.6605 25.7682H19.2344C19.331 26.2001 19.3869 26.6523 19.3869 27.1148C19.3869 27.3282 19.3717 27.5418 19.3514 27.7551L19.3513 27.7552Z" fill="#179F91"/>
</svg>
