<svg width="29" height="32" viewBox="0 0 29 32" fill="none" xmlns="http://www.w3.org/2000/svg">
<path d="M16.458 12.0608C15.7032 12.5411 14.392 12.7903 13.0875 12.7903C11.7845 12.7903 10.4746 12.5415 9.7207 12.061V13.436C9.7207 13.8586 11.0324 14.4723 13.0875 14.4723C15.1448 14.4723 16.458 13.8586 16.458 13.436V12.0608Z" fill="#00245B"/>
<path d="M16.458 20.4243V19.0493C15.7032 19.5294 14.392 19.7786 13.0875 19.7786C11.7845 19.7786 10.4746 19.5298 9.7207 19.0497V20.4242C9.7207 20.848 11.0324 21.4641 13.0875 21.4641C15.1448 21.4641 16.458 20.8485 16.458 20.4243Z" fill="#00245B"/>
<path d="M16.458 14.3896C15.7032 14.869 14.392 15.1176 13.0875 15.1176C11.7845 15.1176 10.4746 14.8691 9.7207 14.3901V15.7634C9.7207 16.1872 11.0324 16.8028 13.0875 16.8028C15.1448 16.8028 16.458 16.1872 16.458 15.7634V14.3896Z" fill="#00245B"/>
<path d="M9.71973 16.7196V18.0941C9.71973 18.5179 11.0314 19.1335 13.0865 19.1335C15.1438 19.1335 16.457 18.5179 16.457 18.0941V16.719C15.7022 17.1993 14.391 17.4485 13.0865 17.4485C11.7835 17.4481 10.4738 17.1995 9.71973 16.7196Z" fill="#00245B"/>
<path d="M0.919922 17.8845V19.2595C0.919922 19.6833 2.23158 20.2989 4.28674 20.2989C6.34214 20.2989 7.65356 19.6832 7.65356 19.2595V17.8845C6.90014 18.3648 5.58981 18.6138 4.28674 18.6138C2.98367 18.6138 1.67404 18.365 0.919922 17.8845Z" fill="#00245B"/>
<path d="M10.3466 6.9165C9.59184 7.3959 8.28065 7.6445 6.9762 7.6445C5.67313 7.6445 4.36326 7.39591 3.60938 6.91696V8.2903C3.60938 8.71409 4.92103 9.3297 6.9762 9.3297C7.74091 9.3297 8.47116 9.23603 9.07436 9.0721V8.77441C9.07436 8.26799 9.52697 7.82869 10.3466 7.52132L10.3466 6.9165Z" fill="#00245B"/>
<path d="M6.97619 4.6713C9.03343 4.6713 10.3466 4.05565 10.3466 3.6319C10.3466 3.20812 9.03343 2.59204 6.97619 2.59204C4.9208 2.59204 3.60938 3.20769 3.60938 3.6319C3.60938 4.05568 4.92103 4.6713 6.97619 4.6713Z" fill="#00245B"/>
<path d="M9.71978 8.77426C9.71978 9.19805 11.0314 9.81366 13.0866 9.81366C15.1438 9.81366 16.4571 9.19801 16.4571 8.77426C16.4571 8.35048 15.1438 7.73486 13.0866 7.73486C12.2298 7.73486 11.407 7.84858 10.7682 8.05484C10.0438 8.28654 9.71973 8.58288 9.71973 8.77425L9.71978 8.77426Z" fill="#00245B"/>
<path d="M0.919922 13.2268V14.6013C0.919922 15.024 2.23158 15.6376 4.28674 15.6376C6.34214 15.6376 7.65356 15.024 7.65356 14.6013V13.2268C6.90014 13.7069 5.58981 13.9557 4.28674 13.9557C2.98367 13.9557 1.67404 13.7071 0.919922 13.2268Z" fill="#00245B"/>
<path d="M4.28651 11.2312C3.96113 11.2312 3.64544 11.247 3.34845 11.278C1.69139 11.4453 0.919922 11.9691 0.919922 12.2706C0.919922 12.6944 2.23158 13.31 4.28674 13.31C6.34214 13.31 7.65356 12.6944 7.65356 12.2706C7.65356 12.2254 7.6351 12.1763 7.59794 12.1202C7.31242 11.6888 6.0546 11.2312 4.28651 11.2312Z" fill="#00245B"/>
<path d="M0.919927 15.5552V16.9285C0.919927 17.3523 2.23158 17.9684 4.28675 17.9684C6.34214 17.9684 7.65357 17.3527 7.65357 16.9285L7.65379 15.5552C6.90037 16.0346 5.59004 16.2827 4.28697 16.2827C2.98367 16.2827 1.67404 16.0346 0.919927 15.5552Z" fill="#00245B"/>
<path d="M16.458 9.73022C15.7032 10.2105 14.392 10.4596 13.0875 10.4596C11.7845 10.4596 10.4746 10.2107 9.7207 9.73063V11.1051C9.7207 11.5289 11.0324 12.145 13.0875 12.145C15.1448 12.145 16.458 11.5293 16.458 11.1051V9.73022Z" fill="#00245B"/>
<path d="M3.60938 9.24585V10.61C3.83027 10.5951 4.05522 10.5852 4.2874 10.5852C5.97755 10.5852 7.42162 10.9871 8.00372 11.6007C8.39462 11.5582 8.75714 11.492 9.07488 11.4048V9.73964C8.45116 9.89006 7.7261 9.97494 6.97671 9.97494C5.67318 9.97472 4.36349 9.72591 3.60938 9.24585Z" fill="#00245B"/>
<path d="M6.97619 6.99881C9.03343 6.99881 10.3466 6.38518 10.3466 5.96253V4.5874C9.59184 5.0677 8.28064 5.31696 6.97619 5.31696C5.67313 5.31696 4.36326 5.06814 3.60938 4.58763V5.96258C3.60938 6.38501 4.92103 6.99887 6.97619 6.99887V6.99881Z" fill="#00245B"/>
<path d="M18.2646 3.3206L28.9855 9.51053V8.58031L18.2646 2.39038V3.3206Z" fill="#00245B"/>
<path d="M28.6863 6.6582L18.2646 0.640625V1.64446L28.9855 7.83439V7.17239C28.9855 6.99675 28.8402 6.74681 28.686 6.65809L28.6863 6.6582Z" fill="#00245B"/>
<path d="M18.2646 7.38681C18.2646 7.56245 18.4097 7.81217 18.5641 7.90112L28.9858 13.9181V10.2561L18.265 4.06616L18.2646 7.38681Z" fill="#00245B"/>
<path d="M17.5798 25.1489L16.3467 25.8611V27.2712C16.9341 26.7353 17.4071 25.921 17.5798 25.1489Z" fill="#00245B"/>
<path d="M26.18 21.2004C26.4069 21.3312 26.7285 21.31 27.0802 21.1454L27.0809 19.6631L25.7891 20.4089C25.8226 20.7881 25.9543 21.07 26.18 21.2004Z" fill="#00245B"/>
<path d="M15.6018 29.634L15.7016 29.5464V25.9204C15.4813 26.3007 15.2093 26.6565 14.8945 26.9612L15.6018 29.634Z" fill="#00245B"/>
<path d="M25.8516 19.6276L25.3504 17.7344C24.9489 17.9974 24.5413 18.1354 24.1664 18.1354C24.0248 18.1354 23.8886 18.116 23.7577 18.0764C23.4519 17.9832 23.2067 17.7837 23.0354 17.5022L16.2776 23.4419C16.3702 24.0078 16.2605 24.6734 15.9971 25.3179L25.8516 19.6276Z" fill="#00245B"/>
<path d="M25.1738 17.0666L24.8635 15.895L23.5332 17.0646C23.6239 17.2686 23.7609 17.4026 23.9455 17.4586C24.2761 17.5595 24.7259 17.4127 25.1738 17.0666Z" fill="#00245B"/>
<path d="M14.3984 25.0924L14.6979 26.2246C15.2516 25.5679 15.6202 24.7037 15.6599 23.9834L14.3984 25.0924Z" fill="#00245B"/>
<path d="M25.8477 25.8746L27.0807 25.1628V23.7529C26.4939 24.2889 26.0211 25.1019 25.8477 25.8746Z" fill="#00245B"/>
<path d="M17.2469 29.8241C17.0206 29.6938 16.6984 29.7147 16.3467 29.8791V31.3607L17.6378 30.6149C17.6045 30.2362 17.4734 29.9548 17.2469 29.8241Z" fill="#00245B"/>
<path d="M25.8572 21.7597C25.5118 21.5602 25.2823 21.2127 25.1839 20.7583L18.289 24.7394C18.2122 25.9907 17.398 27.3938 16.3457 28.0891V29.1855C16.7961 29.0382 17.2189 29.0628 17.5689 29.2652C17.9143 29.4645 18.1444 29.8117 18.2422 30.2656L25.1371 26.2847C25.2139 25.0334 26.0281 23.6303 27.0804 22.935V21.8378C26.8899 21.8997 26.7034 21.9339 26.5262 21.9339C26.2848 21.9337 26.0589 21.8761 25.8572 21.7597ZM21.8738 27.11C21.643 27.2438 21.4147 27.3116 21.1958 27.3116C20.7202 27.3116 20.2406 26.9608 20.2399 26.1765C20.2406 25.3321 20.8168 24.3388 21.5516 23.9141C22.0848 23.6068 22.6336 23.6665 22.9393 24.0466C23.1008 24.2481 23.1859 24.5251 23.1859 24.8484C23.1859 25.6926 22.6097 26.6863 21.8738 27.11Z" fill="#00245B"/>
<path d="M22.2312 24.3594C22.1286 24.3594 22.0056 24.399 21.8754 24.474C21.3402 24.7829 20.8874 25.563 20.8867 26.1768C20.8867 26.3589 20.927 26.6661 21.197 26.6661C21.299 26.6661 21.422 26.6264 21.5528 26.5512C22.0887 26.2423 22.5415 25.4627 22.5415 24.8492C22.5415 24.6767 22.5044 24.5357 22.437 24.4517C22.3861 24.3884 22.3206 24.3594 22.2312 24.3594Z" fill="#00245B"/>
</svg>
