<svg width="32" height="25" viewBox="0 0 32 25" fill="none" xmlns="http://www.w3.org/2000/svg">
<path d="M30.6918 0.25061H24.5277C23.806 0.25061 23.2246 0.832044 23.2246 1.55372V8.30968L25.56 6.45531H30.6969C31.4186 6.45531 32 5.87388 32 5.1522V1.55378C31.995 0.832056 31.4135 0.250847 30.692 0.250847L30.6918 0.25061ZM27.9153 5.02662H25.5547C25.279 5.02662 25.0536 4.8012 25.0536 4.52548C25.0536 4.24976 25.279 4.02434 25.5547 4.02434H27.9153C28.191 4.02434 28.4164 4.24976 28.4164 4.52548C28.4164 4.80097 28.1958 5.02662 27.9153 5.02662ZM29.4238 3.00686H25.5598C25.2841 3.00686 25.0586 2.78144 25.0586 2.50572C25.0586 2.23 25.2841 2.00458 25.5598 2.00458H29.4238C29.6995 2.00458 29.9249 2.23 29.9249 2.50572C29.9249 2.78144 29.6995 3.00686 29.4238 3.00686Z" fill="#179F91"/>
<path d="M24.4121 19.7008C24.7478 19.9063 25.1338 20.0316 25.5547 20.0316C26.5872 20.0316 27.4492 19.3099 27.6746 18.3478H25.7601L24.4121 19.7008Z" fill="#179F91"/>
<path d="M25.0589 15.7267C24.0967 15.9521 23.375 16.8143 23.375 17.8466C23.375 18.2677 23.5003 18.6585 23.7059 18.9892L25.0591 17.636L25.0589 15.7267Z" fill="#179F91"/>
<path d="M26.0615 15.7267V17.3454H27.6803C27.4899 16.5434 26.8635 15.917 26.0615 15.7267Z" fill="#179F91"/>
<path d="M31.598 16.8945L30.8362 16.8142C30.6608 16.7941 30.5104 16.6739 30.4604 16.4986C30.345 16.0976 30.1798 15.7167 29.9742 15.3609C29.884 15.2005 29.899 15.0051 30.0144 14.8597L30.5056 14.2483C30.6509 14.0729 30.6359 13.8173 30.4756 13.6518L29.7538 12.925C29.5935 12.7647 29.3378 12.7497 29.1574 12.895L28.5259 13.4063C28.3856 13.5217 28.1902 13.5367 28.0347 13.4513C27.6888 13.2609 27.3181 13.1054 26.9272 13.0002C26.7519 12.9502 26.6266 12.7997 26.6065 12.6193L26.5214 11.8023C26.4962 11.5769 26.3059 11.4064 26.0805 11.4064H25.0581C24.8327 11.4064 24.6421 11.5769 24.6172 11.8023L24.5166 12.6244C24.4965 12.8048 24.3712 12.9552 24.1959 13.0053C23.805 13.1105 23.434 13.266 23.0884 13.4564C22.9331 13.5415 22.7377 13.5265 22.5972 13.4114L21.9657 12.9001C21.7903 12.7547 21.5296 12.7697 21.3692 12.9301L20.6475 13.6569C20.4872 13.8172 20.4722 14.0729 20.6175 14.2533L21.0986 14.8498C21.2139 14.9951 21.2338 15.2005 21.1337 15.356C20.9332 15.6818 20.7728 16.0877 20.6625 16.4986C20.6124 16.6739 20.462 16.7992 20.2816 16.8193L19.5248 16.8996C19.2994 16.9247 19.1289 17.1151 19.1289 17.3405V18.3629C19.1289 18.5883 19.2994 18.7789 19.5248 18.8038L20.2364 18.879C20.4168 18.8991 20.5721 19.0294 20.6173 19.2048C20.7276 19.6307 20.893 20.0368 21.0984 20.4126C21.1886 20.5679 21.1685 20.7633 21.0534 20.9038L20.6173 21.4451C20.472 21.6205 20.487 21.8812 20.6473 22.0416L21.369 22.7633C21.5294 22.9236 21.785 22.9387 21.9655 22.7933L22.4816 22.3773C22.6219 22.2619 22.8224 22.2469 22.9828 22.3371C23.3688 22.5626 23.7845 22.7381 24.2206 22.8584C24.396 22.9033 24.5212 23.0589 24.5413 23.2393L24.6115 23.8858C24.6366 24.1112 24.827 24.2817 25.0524 24.2817H26.0748C26.3002 24.2817 26.4908 24.1112 26.5157 23.8858L26.5858 23.2342C26.6059 23.0538 26.7312 22.9033 26.9065 22.8533C27.3474 22.7331 27.7586 22.5575 28.1444 22.3321C28.3047 22.2368 28.5001 22.2568 28.6455 22.3722L29.1616 22.7882C29.337 22.9336 29.5926 22.9186 29.7581 22.7582L30.4798 22.0365C30.6402 21.8761 30.6552 21.6205 30.5098 21.44L30.0737 20.8988C29.9584 20.7585 29.9434 20.5631 30.0287 20.4075C30.2392 20.0317 30.4046 19.6256 30.5098 19.1997C30.5548 19.0243 30.7103 18.894 30.8907 18.8739L31.6023 18.7987C31.8277 18.7736 31.9982 18.5832 31.9982 18.3578V17.3354C31.9941 17.11 31.8238 16.9194 31.5981 16.8945L31.598 16.8945ZM25.5591 21.034C23.8001 21.034 22.3716 19.6055 22.3716 17.8465C22.3716 16.0874 23.8001 14.659 25.5591 14.659C27.3182 14.659 28.7466 16.0874 28.7466 17.8465C28.7466 19.6058 27.3131 21.034 25.5591 21.034Z" fill="#179F91"/>
<path d="M8.79561 2.12501C8.79561 1.50848 9.25176 1.00229 9.81291 1.00229H17.5813C18.1426 1.00229 18.5986 1.50343 18.5986 2.12501V3.01219H19.6008V2.12501C19.6008 0.952261 18.6936 0 17.5811 0H9.81273C8.70016 0 7.79297 0.952202 7.79297 2.12501V3.01219H8.79526L8.79561 2.12501Z" fill="#179F91"/>
<path d="M1.28347 12.6795L1.37369 12.7397C1.38868 12.7447 1.45398 12.7648 1.51904 12.7798C4.66129 13.3661 7.8385 13.7221 10.9708 13.8522V13.8321C10.9708 12.9651 11.6775 12.2586 12.5443 12.2586H14.7293C15.5964 12.2586 16.3029 12.9653 16.3029 13.8321V13.8672C17.3905 13.8222 18.4729 13.7569 19.5455 13.6568C19.6057 13.3961 19.7358 13.1506 19.9363 12.9501L20.6581 12.2233C20.9338 11.9526 21.2946 11.8022 21.6855 11.8022C22.0113 11.8022 22.3371 11.9175 22.5927 12.1229L22.9434 12.4085C23.1439 12.3084 23.3493 12.2281 23.5599 12.1529L23.61 11.7018C23.6903 10.9651 24.3066 10.4088 25.0484 10.4088H26.0708C26.6723 10.4088 27.1833 10.7646 27.4039 11.2909V7.45693H25.9104L22.2218 10.3837L22.222 4.01404H2.79642C1.25285 4.01404 0 5.27197 0 6.81554V11.9174L1.26301 12.6691L1.28347 12.6795Z" fill="#179F91"/>
<path d="M23.5802 23.71C23.3194 23.6198 23.064 23.5146 22.8183 23.3893L22.5929 23.5698C22.3373 23.7802 22.0115 23.8955 21.6809 23.8955C21.2949 23.8955 20.9342 23.7451 20.6585 23.4696L19.9368 22.7479C19.4105 22.2216 19.3706 21.3899 19.8366 20.8135L20.0422 20.5578C19.9319 20.3223 19.8366 20.0816 19.7566 19.8361L19.4158 19.801C18.674 19.7208 18.1177 19.1045 18.1177 18.3627V17.3352C18.1177 16.5934 18.674 15.9772 19.4158 15.8968L19.8067 15.8567C19.8869 15.6161 19.9772 15.3906 20.0773 15.1851L19.8318 14.8844C19.7716 14.8143 19.7215 14.734 19.6814 14.6539C18.5187 14.7591 17.3559 14.8293 16.1983 14.8745V15.9972C16.1983 16.8643 15.4916 17.5708 14.6247 17.5708L12.4393 17.5706C11.5722 17.5706 10.8657 16.8639 10.8657 15.997L10.8655 14.8491C7.67799 14.7139 4.49582 14.3579 1.30862 13.7566C1.16834 13.7266 1.0329 13.6814 0.907614 13.6214C0.877619 13.6064 0.847396 13.5914 0.817402 13.5714C0.792253 13.5614 0.767334 13.5414 0.742188 13.5264V22.036C0.742188 23.2789 1.74956 24.2863 2.9874 24.2863H23.6705C23.6405 24.191 23.6205 24.0959 23.6103 23.9956L23.5802 23.71Z" fill="#179F91"/>
<path d="M12.4336 13.2406C12.1179 13.2406 11.8623 13.4962 11.8623 13.8119V15.9968C11.8623 16.3125 12.1179 16.5681 12.4336 16.5681H14.6186C14.9342 16.5681 15.1898 16.3125 15.1898 15.9968V13.8119C15.1898 13.4962 14.9342 13.2406 14.6186 13.2406H12.4336ZM13.5261 15.4057C13.2503 15.4057 13.0249 15.1803 13.0249 14.9046C13.0249 14.6289 13.2503 14.4034 13.5261 14.4034C13.8018 14.4034 14.0272 14.6289 14.0272 14.9046C14.0274 15.1801 13.8069 15.4057 13.5261 15.4057Z" fill="#179F91"/>
</svg>
