<svg width="21" height="20" viewBox="0 0 21 20" fill="none" xmlns="http://www.w3.org/2000/svg">
<path d="M20.9524 14.336C20.9524 17.405 18.6057 19.891 15.6829 19.902H15.6724H5.29048C2.3781 19.902 0 17.427 0 14.358V14.347C0 14.347 0.00628571 9.47835 0.0146667 7.02975C0.0157143 6.56995 0.518571 6.31255 0.861143 6.59855C3.35029 8.67205 7.80162 12.4528 7.85714 12.5023C8.60095 13.1282 9.54381 13.4813 10.5076 13.4813C11.4714 13.4813 12.4143 13.1282 13.1581 12.4902C13.2136 12.4517 17.5654 8.78425 20.0923 6.67665C20.4359 6.38955 20.9409 6.64695 20.9419 7.10565C20.9524 9.53555 20.9524 14.336 20.9524 14.336Z" fill="#2BB3A5"/>
<path d="M20.4038 3.04101C19.4965 1.24581 17.7114 0.0996094 15.7461 0.0996094H5.29082C3.32549 0.0996094 1.54034 1.24581 0.633105 3.04101C0.429867 3.44251 0.526248 3.94301 0.864629 4.22681L8.6432 10.7597C9.18796 11.2217 9.84796 11.4516 10.508 11.4516C10.5122 11.4516 10.5153 11.4516 10.5184 11.4516C10.5216 11.4516 10.5258 11.4516 10.5289 11.4516C11.1889 11.4516 11.8489 11.2217 12.3937 10.7597L20.1723 4.22681C20.5106 3.94301 20.607 3.44251 20.4038 3.04101Z" fill="white"/>
</svg>
