<svg width="32" height="32" viewBox="0 0 32 32" fill="none" xmlns="http://www.w3.org/2000/svg">
<path fill-rule="evenodd" clip-rule="evenodd" d="M21.3095 18.2937C21.3095 18.5884 21.0707 18.828 20.776 18.828C20.4815 18.828 20.2427 18.5884 20.2427 18.2937V17.8841C20.0213 17.8654 19.8043 17.8272 19.5942 17.7726C18.902 17.5904 18.2824 17.2232 17.8609 16.7003C17.6769 16.4719 17.7131 16.137 17.9423 15.9525C18.1712 15.7681 18.5056 15.8051 18.6904 16.0337C18.9647 16.3736 19.3838 16.6181 19.8614 16.7422C20.3562 16.8718 20.9074 16.8718 21.4258 16.7194C21.7383 16.6268 21.994 16.5017 22.1964 16.3547C22.4697 16.1543 22.6472 15.9113 22.7359 15.6536C22.822 15.4038 22.8245 15.1374 22.75 14.8855C22.7038 14.7288 22.6294 14.5786 22.5276 14.4398C22.0509 13.7864 21.3187 13.6918 20.607 13.6009C19.5744 13.4679 18.5719 13.3385 17.9321 12.0624C17.8681 11.9336 17.8162 11.8032 17.7777 11.6739C17.6272 11.1639 17.6578 10.6185 17.8862 10.12C18.1079 9.63661 18.5141 9.20389 19.1189 8.89952C19.3061 8.80592 19.5094 8.72622 19.7281 8.66069C19.8979 8.61004 20.0697 8.57379 20.243 8.54748L20.2435 8.10382C20.2435 7.80888 20.4824 7.57055 20.7768 7.57055C21.0715 7.57055 21.3103 7.80863 21.3103 8.10382V8.54226C21.4613 8.56287 21.61 8.59216 21.7552 8.62915C22.4146 8.8022 23.0052 9.15349 23.4069 9.65101C23.5909 9.88017 23.5546 10.2158 23.3255 10.3995C23.0966 10.584 22.7617 10.547 22.5777 10.3181C22.3222 10.0018 21.9325 9.77562 21.4883 9.6592C21.0262 9.53855 20.5121 9.53855 20.0287 9.68155C19.8656 9.72971 19.7208 9.78681 19.5942 9.85036C19.2223 10.0366 18.9788 10.2886 18.8537 10.5619C18.7352 10.8211 18.7201 11.1053 18.7995 11.3739C18.8219 11.4497 18.8502 11.5214 18.8832 11.5879C19.269 12.3581 19.994 12.4517 20.7415 12.5468C21.6775 12.6682 22.6395 12.7913 23.387 13.8144C23.5628 14.0557 23.6916 14.3169 23.7713 14.5863C23.9081 15.0498 23.9034 15.5386 23.7445 15.9999C23.5886 16.4522 23.2847 16.8748 22.8217 17.2129C22.5215 17.4314 22.1571 17.6136 21.7261 17.7405C21.5888 17.7807 21.4503 17.813 21.3105 17.8388L21.3102 18.2937L21.3095 18.2937ZM26.1063 5.87668C26.5956 6.08126 27.1823 6.39134 27.55 6.78185C27.6905 6.93106 27.9259 6.93776 28.0751 6.79725C28.2245 6.65698 28.2317 6.42187 28.0912 6.27216C27.7692 5.93005 27.1982 5.53256 26.4445 5.21331C26.01 5.0286 25.513 4.86797 24.9655 4.75849C25.3679 5.11674 25.7428 5.47475 26.1063 5.87668ZM25.5204 19.6614C25.7915 19.5678 26.0415 19.4636 26.2659 19.3514C26.4779 19.2448 26.6698 19.1292 26.8379 19.0035C27.0023 18.8814 27.2354 18.9159 27.3573 19.0807C27.4794 19.2448 27.4449 19.4775 27.2803 19.5994C27.0539 19.7684 26.8116 19.9087 26.5588 20.0338C32.1275 21.875 28.5249 17.7175 28.8734 15.4282C29.4241 11.8122 27.1398 7.68959 24.6231 5.44986L24.6025 5.44663C24.5921 5.7093 24.6107 6.04421 24.6832 6.38485C24.7579 6.73317 24.8907 7.08321 25.109 7.34589C25.24 7.50354 25.2174 7.73889 25.0596 7.86948C24.9012 7.99983 24.6665 7.97872 24.5357 7.81958C24.2326 7.45364 24.0533 6.99233 23.956 6.53803C23.8803 6.18326 23.8542 5.82651 23.8577 5.52507C22.8473 5.7845 21.8137 5.91485 20.7826 5.91485C19.5728 5.91485 18.3595 5.73659 17.1832 5.37784C17.1458 5.36642 17.1117 5.34905 17.0812 5.32869C14.3888 7.64157 12.1479 11.8617 12.6916 15.4284C13.0397 17.7179 9.43682 21.875 15.0057 20.0341C14.753 19.9087 14.5107 19.7687 14.284 19.5996C14.1192 19.4779 14.0852 19.2451 14.2071 19.081C14.3287 18.9161 14.5616 18.8816 14.7264 19.0038C14.8945 19.1294 15.0862 19.2451 15.2984 19.3516C15.5224 19.4638 15.7729 19.5681 16.0438 19.6617C18.6662 20.5698 22.8977 20.5698 25.5207 19.6614L25.5204 19.6614ZM2.91273 26.2408C3.43781 26.2408 3.86258 26.6658 3.86258 27.1907C3.86258 27.7157 3.43755 28.141 2.91273 28.141C2.38814 28.141 1.96313 27.7157 1.96313 27.1907C1.96313 26.6658 2.38816 26.2408 2.91273 26.2408ZM8.1365 20.301L5.49242 28.9911C5.27171 29.7118 4.51003 30.1187 3.78904 29.9007L0 28.748L3.04175 18.7505L8.1365 20.301ZM6.77944 28.4248H9.49946L19.6507 31.2024C20.5882 31.4594 21.5008 31.2928 22.2866 30.7205L31.7044 23.8564C32.7014 22.4251 30.9752 20.6471 29.5159 21.6032L24.3477 23.9696C24.6131 24.3425 24.7698 24.7986 24.7698 25.2897C24.7698 25.92 24.5126 26.492 24.0985 26.9062C23.6841 27.3205 23.1121 27.5782 22.4822 27.5782H15.2254C14.9309 27.5782 14.6918 27.3394 14.6918 27.0444C14.6918 26.75 14.9307 26.5112 15.2254 26.5112H22.4822C22.8174 26.5112 23.1225 26.3734 23.344 26.1524C23.5655 25.9307 23.7027 25.6254 23.7027 25.2897C23.7027 24.4515 22.8259 23.8723 22.0654 23.8723H19.4549C18.4305 23.8723 17.5497 23.4215 16.9499 22.591C16.3195 21.7191 15.4059 21.0714 14.3421 20.777C12.8071 20.3512 11.1613 20.7146 9.94875 21.7482H8.81045L6.77944 28.4248ZM24.1609 4.66867C24.2127 3.45811 24.5846 1.76045 25.1624 0.691431C23.7388 0.230399 22.2601 0 20.7817 0C19.3035 0 17.825 0.23064 16.401 0.691431C16.979 1.76121 17.3508 3.45785 17.4025 4.66917C18.5008 5.00384 19.6399 5.17067 20.7817 5.17067C21.9008 5.17042 23.093 5.00506 24.1609 4.66867Z" fill="#006355"/>
</svg>
