<svg width="31" height="32" viewBox="0 0 31 32" fill="none" xmlns="http://www.w3.org/2000/svg">
<path d="M15.2968 0C8.01922 0 2.12305 5.92981 2.12305 13.2074C2.12305 14.555 2.32517 15.8354 2.69579 17.0484L4.48149 17.2505C4.11086 16.2397 3.87514 15.1616 3.77383 14.0159H8.32242C8.35603 15.3299 8.49093 16.5428 8.72666 17.7222L9.2994 17.7896C9.40046 17.1158 9.67003 16.5093 10.1081 16.0039C10.007 15.3637 9.97341 14.6899 9.93957 14.0161H14.1175C14.8587 13.7466 15.7347 13.7466 16.4759 14.0161H20.6538C20.6202 14.6899 20.5864 15.3637 20.4853 16.0039C20.9234 16.4756 21.2265 17.1158 21.294 17.7896L21.8667 17.7222C22.0689 16.5767 22.2038 15.3299 22.2374 14.0159H26.8195C26.7521 15.1614 26.5164 16.2397 26.1119 17.2505L27.8976 17.0484C28.2682 15.8354 28.4703 14.5214 28.4703 13.2074C28.5042 5.92987 22.5744 0 15.2966 0H15.2968ZM8.32245 12.3988H3.74052C3.84158 10.7478 4.31327 9.19809 5.05453 7.81664L8.89547 7.81688C8.55845 9.23196 8.3563 10.7481 8.32245 12.3988ZM9.33329 6.19941H6.09869C7.4127 4.48115 9.1984 3.13334 11.2872 2.35847C10.479 3.3693 9.83885 4.68331 9.33329 6.19941ZM14.4882 12.3988H9.93987C10.0073 10.7478 10.2094 9.19809 10.5462 7.81664H14.4882V12.3988ZM14.4882 6.19941H11.0518C11.8941 3.87457 13.107 2.22382 14.4882 1.75213V6.19941ZM16.1056 1.75213C17.4871 2.22381 18.7 3.87481 19.5423 6.19965L16.1056 6.19941V1.75213ZM16.1056 12.3989V7.817H20.0477C20.4183 9.19845 20.6204 10.782 20.6879 12.3992L16.1056 12.3989ZM21.2606 6.19953C20.7553 4.68343 20.1151 3.36942 19.34 2.35859C21.3952 3.13346 23.2145 4.48127 24.5285 6.19953H21.2606ZM22.2714 12.3989C22.2378 10.7479 22.0355 9.23179 21.6987 7.81676H25.5396C26.2809 9.19821 26.719 10.7479 26.8536 12.3989H22.2714Z" fill="#006355"/>
<path d="M9.36654 24.0564L9.33293 23.45L8.9623 23.012C8.05254 21.9337 7.98534 20.4514 8.72634 19.3396L1.7857 18.5645C0.808739 18.5645 0 20.0131 0 21.7652C0 23.5172 0.808679 24.9659 1.7857 24.9659L9.40019 24.09C9.36658 24.09 9.36658 24.0563 9.36658 24.0563L9.36654 24.0564Z" fill="#006355"/>
<path d="M28.8073 18.5647L21.9004 19.3059C22.6416 20.4514 22.5742 21.934 21.6644 22.9784L21.2602 23.4164L21.2266 24.0228V24.0564L28.8411 24.8987C29.818 24.8987 30.6268 23.4836 30.6268 21.698C30.5931 20.0136 29.7847 18.5647 28.8075 18.5647L28.8073 18.5647Z" fill="#006355"/>
<path d="M12.8365 26.9539L12.2302 26.9203C11.3204 26.8529 10.5456 26.415 10.0403 25.741L8.18717 29.683C8.01866 30.0536 8.32184 30.4578 8.7263 30.3568L10.3435 30.0536C10.5456 30.02 10.7477 30.121 10.8488 30.3232L11.6574 31.7382C11.8596 32.1089 12.3651 32.0753 12.5334 31.7046L14.3191 27.8973C13.9485 27.7627 13.5779 27.5603 13.2747 27.3246L12.8365 26.9539Z" fill="#006355"/>
<path d="M20.5521 25.7412C20.0469 26.415 19.2718 26.8531 18.3623 26.9206L17.7559 26.9542L17.3178 27.3248C17.0147 27.5944 16.6776 27.7965 16.2734 27.8975L18.0591 31.7048C18.2276 32.0755 18.7329 32.0755 18.9351 31.7385L19.7099 30.3234C19.811 30.1213 20.047 30.0202 20.2491 30.0538L21.8663 30.357C22.2705 30.458 22.5739 30.02 22.4054 29.6832L20.5521 25.7412Z" fill="#006355"/>
<path d="M15.2963 26.6172C14.9257 26.6172 14.5214 26.4825 14.2519 26.2129L13.7128 25.7749C13.5107 25.6064 13.2747 25.5053 13.0051 25.4717L12.3313 25.4042C11.5226 25.3368 10.9162 24.6966 10.8488 23.9217L10.7813 23.2479C10.7477 22.9784 10.6467 22.7426 10.4782 22.5403L10.0401 22.035C9.50096 21.4286 9.50096 20.5189 10.0401 19.9123L10.4782 19.407C10.6467 19.2049 10.7477 18.9689 10.7813 18.6993L10.8488 18.0255C10.9162 17.2169 11.5226 16.6105 12.3313 16.543L13.0051 16.4756C13.2747 16.442 13.5104 16.3409 13.7128 16.1724L14.2181 15.7343C14.5212 15.4984 14.8919 15.3301 15.2625 15.3301C15.6331 15.3301 16.0373 15.4647 16.3069 15.7343L16.8122 16.1724C17.0143 16.3409 17.2502 16.442 17.5198 16.4756L18.1936 16.543C19.0023 16.6105 19.6423 17.2507 19.6761 18.0255L19.7436 18.6993C19.7772 18.9689 19.8783 19.2046 20.0468 19.407L20.4848 19.9123C21.024 20.5186 21.024 21.4284 20.4848 22.035L20.0468 22.5403C19.8783 22.7424 19.7772 22.9783 19.7436 23.2479L19.6761 23.9217C19.6087 24.7304 19.0024 25.3368 18.1936 25.4042L17.5198 25.4717C17.2503 25.5053 17.0145 25.6064 16.8122 25.7749L16.3069 26.2129C16.0711 26.4825 15.7006 26.6172 15.2963 26.6172ZM13.3421 20.5188C13.1736 20.5188 13.0051 20.5863 12.8705 20.721C12.6009 20.9905 12.6009 21.3948 12.8705 21.6644L14.1845 22.9784C14.3191 23.113 14.4876 23.1805 14.6562 23.1805C14.8247 23.1805 14.9932 23.113 15.1278 22.9784L17.7558 20.3503C17.8905 20.2157 17.958 20.0472 17.958 19.8787C17.958 19.7102 17.8905 19.5416 17.7558 19.407C17.6212 19.2723 17.4527 19.2049 17.2842 19.2049C17.1157 19.2049 16.9471 19.2723 16.8125 19.407L14.6226 21.5297L13.8139 20.721C13.6792 20.5863 13.5107 20.5189 13.3422 20.5189L13.3421 20.5188Z" fill="#006355"/>
</svg>
