<svg width="21" height="22" viewBox="0 0 21 22" fill="none" xmlns="http://www.w3.org/2000/svg">
<path d="M13.0099 3.84113C12.5111 3.74439 12.0531 4.07859 11.9581 4.58979C11.8632 5.10098 12.1825 5.60009 12.6677 5.70013C14.1284 5.99915 15.2564 7.18645 15.5423 8.72554V8.72664C15.6237 9.16967 15.9951 9.49178 16.4229 9.49178C16.4803 9.49178 16.5377 9.48629 16.5961 9.47529C17.0813 9.37305 17.4006 8.87505 17.3057 8.36275C16.8789 6.06401 15.1938 4.28856 13.0099 3.84113Z" fill="#2BB3A5"/>
<path d="M12.9433 0.00970013C12.7096 -0.025479 12.4748 0.047078 12.2881 0.203186C12.0961 0.361492 11.9761 0.590156 11.95 0.846305C11.8947 1.3641 12.2505 1.83242 12.743 1.89069C16.1393 2.28865 18.7792 5.06671 19.1611 8.64399C19.2122 9.1233 19.5952 9.48499 20.0522 9.48499C20.0866 9.48499 20.12 9.48279 20.1544 9.47839C20.3934 9.45091 20.6062 9.32668 20.7565 9.1288C20.9057 8.93092 20.9735 8.68466 20.9464 8.43291C20.4706 3.96956 17.1807 0.505507 12.9433 0.00970013Z" fill="#2BB3A5"/>
<path fill-rule="evenodd" clip-rule="evenodd" d="M9.46272 12.0698C13.6422 16.457 14.5903 11.3815 17.2514 14.1736C19.8168 16.8666 21.2913 17.4062 18.0409 20.8182C17.6338 21.1617 15.0469 25.2951 5.95586 15.7521C-3.13632 6.208 0.797926 3.48904 1.12522 3.06165C4.38351 -0.359786 4.88851 1.19745 7.45398 3.89045C10.1151 6.68379 5.28328 7.6826 9.46272 12.0698Z" fill="white"/>
</svg>
