<svg width="32" height="32" viewBox="0 0 32 32" fill="none" xmlns="http://www.w3.org/2000/svg">
<path fill-rule="evenodd" clip-rule="evenodd" d="M2.13944 11.1231C0.934972 11.0198 0 10.0011 0 8.79175C0 7.7544 0.684214 6.86927 1.62331 6.5648C1.52327 7.04791 1.4703 7.54818 1.4703 8.0607C1.47055 9.15433 1.71031 10.1914 2.13944 11.1231ZM29.7255 28.5642H0V30.143C0 31.1648 0.836517 32.0007 1.8577 32.0007H29.7248C29.725 30.8554 29.725 29.7098 29.725 28.5642H29.7255ZM29.7255 16.3787H0V27.6596H29.7255V26.8008L25.5018 26.8006C22.87 26.8006 20.7201 24.6507 20.7201 22.0189C20.7201 19.3871 22.87 17.2372 25.5018 17.2372H29.7255V16.3789V16.3787ZM2.34054 12.0369C1.42319 12.0369 0.59185 11.652 0.000458793 11.0359V15.4734H29.7259V12.0369H2.341H2.34054ZM25.5023 18.1423H31.7254V25.8956H25.5023C23.3703 25.8956 21.6256 24.1512 21.6256 22.0189C21.6254 19.8869 23.3703 18.1425 25.5023 18.1425V18.1423ZM25.5023 20.6464C26.2602 20.6464 26.8751 21.2608 26.8751 22.0192C26.8751 22.7771 26.2607 23.392 25.5023 23.392C24.7444 23.392 24.1295 22.7776 24.1295 22.0192C24.1295 21.2608 24.7444 20.6464 25.5023 20.6464ZM21.2129 0.000732422C24.7598 0.000732422 27.6351 2.87613 27.6351 6.42291C27.6351 8.28342 26.8434 9.95875 25.5793 11.1317L23.1446 11.1315C25.0496 10.349 26.3012 8.492 26.3012 6.42266C26.3012 3.6123 24.0228 1.33438 21.2129 1.33438C18.4028 1.33438 16.1244 3.61276 16.1244 6.42318C16.1244 8.49279 17.3759 10.3497 19.281 11.132H16.8463C15.5822 9.95928 14.7905 8.2835 14.7905 6.42318C14.7907 2.87634 17.6659 0.000732422 21.2129 0.000732422ZM20.7605 3.15297V3.44851C20.4611 3.52886 20.1935 3.68699 19.9806 3.89963C19.3005 4.57979 19.302 5.68468 19.9816 6.3651C20.195 6.5785 20.4622 6.73741 20.7606 6.81699V8.41783C20.7089 8.38405 20.6608 8.34516 20.6175 8.30166C20.4599 8.14327 20.3721 7.93856 20.3737 7.71467C20.3747 7.46569 20.1738 7.26303 19.9246 7.262C19.6756 7.26098 19.473 7.46185 19.4719 7.71108C19.4696 8.17525 19.6503 8.60898 19.9776 8.93782C20.1907 9.15174 20.4597 9.31192 20.7608 9.3938V9.69242C20.7608 9.94216 20.9632 10.1451 21.2135 10.1451C21.4632 10.1451 21.6661 9.94268 21.6661 9.69242V9.39688C21.9655 9.31653 22.2332 9.15839 22.4461 8.94575C23.1262 8.2656 23.1246 7.1607 22.445 6.48029C22.2316 6.26688 21.9645 6.10798 21.6661 6.0284V4.42756C21.8997 4.57904 22.0517 4.83646 22.0517 5.11793C22.0517 5.1384 22.0533 5.15836 22.0558 5.17806C22.0786 5.40477 22.2697 5.58185 22.5026 5.58313C22.7344 5.58389 22.9258 5.40964 22.9519 5.18472C22.9552 5.16297 22.9568 5.1407 22.9568 5.11793C22.9568 4.33801 22.4125 3.654 21.6664 3.45138V3.15277C21.6664 2.90302 21.464 2.7001 21.2137 2.7001C20.9629 2.70036 20.7605 2.90297 20.7605 3.15297ZM21.6656 7.00507V8.41935C21.7162 8.3866 21.7631 8.34898 21.8058 8.30625C22.1356 7.97641 22.1333 7.44648 21.8048 7.11691C21.7623 7.0752 21.7157 7.03731 21.6656 7.00507ZM20.7605 5.84102V4.42674C20.7099 4.45949 20.663 4.4971 20.6203 4.53984C20.2905 4.86968 20.2928 5.39961 20.6213 5.72917C20.6638 5.77139 20.7099 5.80878 20.7605 5.84102ZM24.1709 3.4651C23.4137 2.70791 22.368 2.23994 21.2127 2.23994C18.9022 2.23994 17.0292 4.11303 17.0292 6.42337C17.0292 8.73372 18.9021 10.6068 21.2127 10.6068C23.5231 10.6068 25.3961 8.73398 25.3961 6.42337C25.3961 5.26751 24.9281 4.22177 24.1709 3.4651ZM8.79789 1.63859C11.0269 1.63859 12.99 2.77395 14.1415 4.49761C13.9749 5.11123 13.8854 5.75658 13.8854 6.42291C13.8854 7.76985 14.2492 9.03216 14.8838 10.1169C14.7646 10.4703 14.6154 10.809 14.4396 11.132H12.8551C13.5023 10.2784 13.8863 9.2146 13.8863 8.06083C13.8863 5.25048 11.608 2.97256 8.79806 2.97256C5.98816 2.97256 3.70978 5.25094 3.70978 8.06083C3.70978 9.2146 4.09387 10.2784 4.74098 11.132H3.15652C2.65882 10.2197 2.37581 9.17346 2.37581 8.06083C2.37556 4.5138 5.25095 1.63865 8.79773 1.63865L8.79789 1.63859ZM7.0566 9.34935C7.05429 9.81352 7.23495 10.2472 7.56223 10.5761C7.77538 10.79 8.04432 10.9502 8.34549 11.0321V11.1316H5.95732C5.9174 11.0945 5.878 11.0571 5.83987 11.0185C5.08268 10.2613 4.6147 9.21557 4.6147 8.06023C4.6147 5.74982 6.48753 3.8768 8.79814 3.8768C11.1087 3.8768 12.9816 5.74963 12.9816 8.06023C12.9816 9.23011 12.4974 10.3371 11.639 11.1314H9.25079V11.0349C9.55017 10.9545 9.81782 10.7964 10.0307 10.5838C10.7109 9.90362 10.7093 8.79873 10.0297 8.11831C9.81627 7.9049 9.54913 7.746 9.25074 7.66642V6.06558C9.48437 6.21706 9.63636 6.47448 9.63636 6.75595C9.63636 6.77642 9.6379 6.79638 9.64046 6.81608C9.66323 7.04279 9.85437 7.21987 10.0872 7.22115C10.3191 7.22191 10.5105 7.04766 10.5366 6.82274C10.5399 6.80099 10.5414 6.77872 10.5414 6.75595C10.5414 5.97656 9.99716 5.29202 9.25101 5.0894V4.79079C9.25101 4.54104 9.04861 4.33812 8.79835 4.33812C8.54861 4.33812 8.34569 4.54053 8.34569 4.79079V5.08633C8.04631 5.16668 7.77865 5.32481 7.56577 5.53745C6.88562 6.21761 6.88719 7.3225 7.56679 8.00292C7.7802 8.21632 8.04734 8.37523 8.34573 8.45481V10.0557C8.29404 10.0219 8.24594 9.98298 8.20269 9.93948C8.04507 9.78109 7.9573 9.57638 7.95883 9.35249C7.95985 9.10351 7.75898 8.90085 7.50975 8.89983C7.26026 8.89931 7.05761 9.10044 7.05658 9.34942L7.0566 9.34935ZM9.25054 10.0566C9.3012 10.0239 9.34803 9.98625 9.39076 9.94351C9.7206 9.61368 9.71829 9.08374 9.38974 8.75418C9.34752 8.71196 9.30145 8.6746 9.25079 8.64236L9.25054 10.0566ZM8.34576 6.06459C8.2951 6.09735 8.24827 6.13496 8.20554 6.1777C7.8757 6.50753 7.87801 7.03747 8.20656 7.36703C8.24878 7.40925 8.29536 7.44661 8.34551 7.47885L8.34576 6.06459Z" fill="#00245B"/>
</svg>
