<svg width="30" height="32" viewBox="0 0 30 32" fill="none" xmlns="http://www.w3.org/2000/svg">
<path d="M16.185 11.8959C15.3987 12.3962 14.0329 12.6559 12.6741 12.6559C11.3167 12.6559 9.95229 12.3967 9.16699 11.8961V13.3284C9.16699 13.7686 10.5333 14.4079 12.6741 14.4079C14.8171 14.4079 16.185 13.7686 16.185 13.3284V11.8959Z" fill="#179F91"/>
<path d="M16.185 20.6081V19.1759C15.3987 19.676 14.0329 19.9356 12.6741 19.9356C11.3167 19.9356 9.95229 19.6764 9.16699 19.1763V20.6081C9.16699 21.0495 10.5333 21.6912 12.6741 21.6912C14.8171 21.6912 16.185 21.05 16.185 20.6081Z" fill="#179F91"/>
<path d="M16.185 14.3218C15.3987 14.8212 14.0329 15.0801 12.6741 15.0801C11.3167 15.0801 9.95229 14.8212 9.16699 14.3223V15.7528C9.16699 16.1943 10.5333 16.8356 12.6741 16.8356C14.8171 16.8356 16.185 16.1943 16.185 15.7528V14.3218Z" fill="#179F91"/>
<path d="M9.16699 16.7489V18.1807C9.16699 18.6221 10.5333 19.2634 12.6741 19.2634C14.8171 19.2634 16.185 18.6221 16.185 18.1807V16.7483C15.3987 17.2486 14.0329 17.5082 12.6741 17.5082C11.3167 17.5077 9.95253 17.2488 9.16699 16.7489Z" fill="#179F91"/>
<path d="M0 17.9624V19.3947C0 19.8361 1.36631 20.4774 3.5071 20.4774C5.64814 20.4774 7.01421 19.8361 7.01421 19.3947V17.9624C6.22939 18.4628 4.86447 18.7222 3.5071 18.7222C2.14974 18.7222 0.785535 18.463 0 17.9624Z" fill="#179F91"/>
<path d="M9.81975 6.53732C9.03349 7.03669 7.66767 7.29565 6.30886 7.29565C4.9515 7.29565 3.58705 7.0367 2.80176 6.5378V7.96836C2.80176 8.4098 4.16807 9.05106 6.30886 9.05106C7.10545 9.05106 7.86612 8.95349 8.49445 8.78272V8.47264C8.49445 7.94511 8.96592 7.4875 9.81969 7.16733L9.81975 6.53732Z" fill="#179F91"/>
<path d="M6.30886 4.19855C8.45182 4.19855 9.81975 3.55725 9.81975 3.11584C9.81975 2.6744 8.45182 2.03265 6.30886 2.03265C4.16783 2.03265 2.80176 2.67396 2.80176 3.11584C2.80176 3.55728 4.16807 4.19855 6.30886 4.19855Z" fill="#179F91"/>
<path d="M9.16705 8.47262C9.16705 8.91406 10.5334 9.55533 12.6742 9.55533C14.8171 9.55533 16.185 8.91403 16.185 8.47262C16.185 8.03118 14.8171 7.38992 12.6742 7.38992C11.7817 7.38992 10.9246 7.50837 10.2591 7.72322C9.50458 7.96458 9.16699 8.27327 9.16699 8.47261L9.16705 8.47262Z" fill="#179F91"/>
<path d="M0 13.1107V14.5424C0 14.9827 1.36631 15.6219 3.5071 15.6219C5.64814 15.6219 7.01421 14.9827 7.01421 14.5424V13.1107C6.22939 13.6107 4.86447 13.87 3.5071 13.87C2.14974 13.87 0.785535 13.611 0 13.1107Z" fill="#179F91"/>
<path d="M3.50686 11.0318C3.16793 11.0318 2.83908 11.0482 2.52972 11.0806C0.803609 11.2549 0 11.8005 0 12.1146C0 12.556 1.36631 13.1973 3.5071 13.1973C5.64814 13.1973 7.01421 12.556 7.01421 12.1146C7.01421 12.0674 6.99497 12.0163 6.95627 11.9579C6.65885 11.5085 5.34862 11.0318 3.50686 11.0318Z" fill="#179F91"/>
<path d="M5.49747e-06 15.536V16.9665C5.49747e-06 17.408 1.36631 18.0497 3.50711 18.0497C5.64815 18.0497 7.01421 17.4084 7.01421 16.9665L7.01445 15.536C6.22963 16.0353 4.86471 16.2938 3.50734 16.2938C2.14974 16.2938 0.78554 16.0353 5.49747e-06 15.536Z" fill="#179F91"/>
<path d="M16.185 9.46822C15.3987 9.96853 14.0329 10.2279 12.6741 10.2279C11.3167 10.2279 9.95229 9.96874 9.16699 9.46864V10.9004C9.16699 11.3418 10.5333 11.9836 12.6741 11.9836C14.8171 11.9836 16.185 11.3423 16.185 10.9004V9.46822Z" fill="#179F91"/>
<path d="M2.80078 8.96381V10.3848C3.03088 10.3693 3.26521 10.359 3.50705 10.359C5.26763 10.359 6.77187 10.7777 7.37822 11.4168C7.78541 11.3725 8.16304 11.3035 8.49402 11.2127V9.47817C7.84431 9.63485 7.08904 9.72328 6.30843 9.72328C4.95058 9.72305 3.58632 9.46386 2.80078 8.96381Z" fill="#179F91"/>
<path d="M6.30886 6.62318C8.45182 6.62318 9.81975 5.98398 9.81975 5.54372V4.1113C9.03349 4.61161 7.66766 4.87125 6.30886 4.87125C4.9515 4.87125 3.58705 4.61207 2.80176 4.11154V5.54378C2.80176 5.98381 4.16807 6.62324 6.30886 6.62324V6.62318Z" fill="#179F91"/>
<path d="M18.0684 2.79164L29.2359 9.23949V8.27051L18.0684 1.82266V2.79164Z" fill="#179F91"/>
<path d="M28.9233 6.2683L18.0674 0V1.04566L29.2349 7.4935V6.80392C29.2349 6.62097 29.0836 6.36061 28.923 6.26819L28.9233 6.2683Z" fill="#179F91"/>
<path d="M18.0684 7.0273C18.0684 7.21025 18.2194 7.47038 18.3803 7.56303L29.2362 13.8307V10.0161L18.0687 3.56828L18.0684 7.0273Z" fill="#179F91"/>
<path d="M17.3538 25.5296L16.0693 26.2715V27.7403C16.6813 27.182 17.1739 26.3338 17.3538 25.5296Z" fill="#179F91"/>
<path d="M26.3125 21.4164C26.5489 21.5526 26.8839 21.5306 27.2502 21.3591L27.2509 19.815L25.9053 20.5919C25.9402 20.9869 26.0774 21.2806 26.3125 21.4164Z" fill="#179F91"/>
<path d="M15.2934 30.2012L15.3973 30.11V26.3329C15.1679 26.7291 14.8846 27.0997 14.5566 27.4171L15.2934 30.2012Z" fill="#179F91"/>
<path d="M25.9712 19.7783L25.4491 17.8061C25.0309 18.0801 24.6063 18.2238 24.2158 18.2238C24.0683 18.2238 23.9263 18.2037 23.7901 18.1624C23.4715 18.0653 23.2161 17.8575 23.0376 17.5643L15.9983 23.7515C16.0947 24.3409 15.9805 25.0343 15.7061 25.7056L25.9712 19.7783Z" fill="#179F91"/>
<path d="M25.2646 17.1104L24.9414 15.89L23.5557 17.1083C23.6502 17.3208 23.7928 17.4604 23.9851 17.5188C24.3295 17.6238 24.7981 17.4709 25.2646 17.1104Z" fill="#179F91"/>
<path d="M14.041 25.4707L14.353 26.6501C14.9298 25.9661 15.3137 25.0659 15.355 24.3155L14.041 25.4707Z" fill="#179F91"/>
<path d="M25.9668 26.2856L27.2513 25.5441V24.0755C26.64 24.6338 26.1474 25.4808 25.9668 26.2856Z" fill="#179F91"/>
<path d="M17.0071 30.3994C16.7714 30.2636 16.4357 30.2854 16.0693 30.4566V32L17.4143 31.2231C17.3796 30.8286 17.2431 30.5355 17.0071 30.3994Z" fill="#179F91"/>
<path d="M25.9771 21.9988C25.6173 21.791 25.3783 21.4291 25.2758 20.9557L18.0936 25.1027C18.0136 26.4061 17.1654 27.8677 16.0693 28.592V29.7341C16.5385 29.5807 16.9789 29.6062 17.3435 29.8171C17.7033 30.0247 17.943 30.3864 18.0448 30.8592L25.227 26.7124C25.307 25.409 26.1552 23.9475 27.2513 23.2232V22.0802C27.0528 22.1447 26.8586 22.1803 26.674 22.1803C26.4226 22.1801 26.1873 22.1201 25.9771 21.9988ZM21.8278 27.5721C21.5874 27.7115 21.3495 27.7821 21.1215 27.7821C20.6261 27.7821 20.1265 27.4166 20.1258 26.5997C20.1265 25.7201 20.7268 24.6854 21.4921 24.2431C22.0476 23.9229 22.6192 23.9851 22.9377 24.381C23.1059 24.5909 23.1945 24.8794 23.1945 25.2163C23.1945 26.0956 22.5943 27.1307 21.8278 27.5721Z" fill="#179F91"/>
<path d="M22.1984 24.7069C22.0914 24.7069 21.9634 24.7482 21.8278 24.8263C21.2702 25.1481 20.7985 25.9607 20.7979 26.6001C20.7979 26.7898 20.8398 27.1098 21.1211 27.1098C21.2273 27.1098 21.3554 27.0685 21.4917 26.9901C22.0499 26.6683 22.5216 25.8563 22.5216 25.2171C22.5216 25.0374 22.4829 24.8906 22.4128 24.8031C22.3598 24.7372 22.2915 24.7069 22.1984 24.7069Z" fill="#179F91"/>
</svg>
