<svg width="32" height="32" viewBox="0 0 32 32" fill="none" xmlns="http://www.w3.org/2000/svg">
<path d="M11.5869 20.4143H20.4147V14.8969H17.656V15.4486C17.6565 15.6393 17.5582 15.8166 17.3966 15.9176C17.3087 15.9716 17.2075 16.0004 17.1043 16.0004C17.018 15.9991 16.9331 15.9785 16.856 15.9398L16.0008 15.5149L15.1457 15.9398C14.975 16.0258 14.7718 16.0171 14.6087 15.9171C14.4459 15.8171 14.3461 15.6398 14.3456 15.4486V14.8969H11.587L11.5869 20.4143Z" fill="#179F91"/>
<path d="M11.5869 11.5865H14.3456V13.7934H11.5869V11.5865Z" fill="#179F91"/>
<path d="M15.7517 14.4057C15.9074 14.3249 16.0926 14.3249 16.2483 14.4057L16.5517 14.5547V11.5865H15.4482V14.5547L15.7517 14.4057Z" fill="#179F91"/>
<path d="M17.6553 11.5865H20.4139V13.7934H17.6553V11.5865Z" fill="#179F91"/>
<path d="M15.4482 7.17263H16.5517V8.2761H15.4482V7.17263Z" fill="#179F91"/>
<path d="M11.1094 8.6311L12.065 8.07937L12.6168 9.03503L11.6611 9.58677L11.1094 8.6311Z" fill="#179F91"/>
<path d="M8.0791 12.0651L8.63084 11.1094L9.5865 11.6612L9.03477 12.6168L8.0791 12.0651Z" fill="#179F91"/>
<path d="M7.17285 15.4486H8.27632V16.5521H7.17285V15.4486Z" fill="#179F91"/>
<path d="M8.08008 19.9357L9.03574 19.3839L9.58748 20.3396L8.63181 20.8913L8.08008 19.9357Z" fill="#179F91"/>
<path d="M11.1084 23.3696L11.6601 22.414L12.6158 22.9657L12.0641 23.9214L11.1084 23.3696Z" fill="#179F91"/>
<path d="M15.4482 23.7246H16.5517V24.8281H15.4482V23.7246Z" fill="#179F91"/>
<path d="M19.3848 22.9649L20.3404 22.4131L20.8922 23.3688L19.9365 23.9205L19.3848 22.9649Z" fill="#179F91"/>
<path d="M22.4141 20.3405L22.9658 19.3848L23.9215 19.9365L23.3697 20.8922L22.4141 20.3405Z" fill="#179F91"/>
<path d="M23.7246 15.4486H24.8281V16.5521H23.7246V15.4486Z" fill="#179F91"/>
<path d="M22.4141 11.6603L23.3697 11.1086L23.9215 12.0642L22.9658 12.616L22.4141 11.6603Z" fill="#179F91"/>
<path d="M19.3848 9.03528L19.9365 8.07961L20.8922 8.63135L20.3404 9.58701L19.3848 9.03528Z" fill="#179F91"/>
<path d="M2.53809 11.0348C3.53783 8.37755 5.2965 6.07288 7.59556 4.40702C9.89462 2.74123 12.6326 1.78802 15.4693 1.66582L16.0006 1.64587V0L19.311 2.75867L16.0006 5.51734V3.84562L15.4217 3.8737C13.1796 3.97641 11.0101 4.70029 9.15562 5.96486C7.30117 7.22944 5.83488 8.9849 4.92057 11.0346L2.53809 11.0348Z" fill="#179F91"/>
<path d="M12.6895 29.242L15.9999 26.4833V28.155L16.5787 28.127C18.8209 28.0243 20.9904 27.3004 22.8448 26.0358C24.6993 24.7712 26.1656 23.0158 27.0799 20.966H29.4621C28.4624 23.6232 26.7037 25.9279 24.4047 27.5938C22.1056 29.2596 19.3676 30.2128 16.531 30.335L15.9997 30.3549V32.0008L12.6895 29.242Z" fill="#179F91"/>
<path d="M26.4831 16.0004H28.1548L28.1268 15.4215C28.024 13.1794 27.3002 11.0099 26.0356 9.15542C24.771 7.30096 23.0156 5.83467 20.9658 4.92037V2.53808C23.6223 3.53908 25.9263 5.2982 27.5917 7.59701C29.2572 9.89556 30.2109 12.633 30.3346 15.4688L30.3545 16.0001H32.0004L29.2417 19.3105L26.4831 16.0004Z" fill="#179F91"/>
<path d="M10.4829 29.242C7.95503 28.1839 5.78208 26.4252 4.22001 24.1737C2.65794 21.9219 1.7717 19.2706 1.66577 16.532L1.64631 16.0002H0L2.75867 12.6898L5.51734 16.0002H3.84612L3.87371 16.5785C3.97987 18.715 4.64664 20.7858 5.80749 22.5829C6.96809 24.3797 8.58167 25.8391 10.4856 26.8142L10.4829 29.242Z" fill="#179F91"/>
</svg>
