<svg width="32" height="30" viewBox="0 0 32 30" fill="none" xmlns="http://www.w3.org/2000/svg">
<path fill-rule="evenodd" clip-rule="evenodd" d="M2.25635 23.9261H4.64765C4.92702 23.9261 5.15539 24.1539 5.15539 24.4338V29.3191C5.15539 29.5985 4.92752 29.8269 4.64765 29.8269H2.25635C1.97697 29.8269 1.7486 29.599 1.7486 29.3191V24.4338C1.74885 24.1539 1.97698 23.9261 2.25635 23.9261ZM6.10455 9.67153C7.78154 9.67153 9.30032 10.3479 10.4035 11.4425L16.3611 6.25341C16.5116 6.12226 16.7256 6.1107 16.8869 6.21095L23.1515 9.79082L30.4669 1.00644L28.4394 1.22401C28.196 1.24988 27.9777 1.07352 27.9518 0.830067C27.9259 0.586615 28.1023 0.368291 28.3457 0.342417L31.5098 0.00324876C31.7949 -0.0268997 32.0321 0.218311 31.9964 0.499948L31.6583 3.65501C31.6324 3.89846 31.4141 4.07507 31.1706 4.04895C30.9272 4.02307 30.7506 3.80474 30.7767 3.5613L30.9666 1.78956L23.6159 10.6158C23.4855 10.8012 23.233 10.8602 23.0325 10.7454L16.7068 7.13034L10.9876 12.1116C11.7544 13.1319 12.2094 14.4006 12.2094 15.7757C12.2094 19.1468 9.47643 21.8802 6.10482 21.8802C2.73295 21.8802 0 19.1473 0 15.7757C0 12.4041 2.73295 9.67137 6.1043 9.67137L6.10455 9.67153ZM4.43559 17.0004C4.43409 17.4456 4.60593 17.8609 4.92048 18.1765C5.12223 18.379 5.37648 18.5317 5.66064 18.6103V18.8834C5.66064 19.1286 5.85937 19.3279 6.10508 19.3279C6.35029 19.3279 6.54952 19.1292 6.54952 18.8834V18.6134C6.83216 18.5355 7.08516 18.3855 7.28692 18.1837C7.9389 17.5318 7.93735 16.4726 7.28591 15.8204C7.08392 15.6179 6.83142 15.4674 6.54981 15.3895V13.9052C6.75582 14.0486 6.88797 14.2815 6.88797 14.5348C6.88797 14.5556 6.88948 14.5762 6.89224 14.5963C6.91611 14.8174 7.10303 14.9903 7.33065 14.991C7.55751 14.9918 7.74519 14.8222 7.77182 14.6021C7.77509 14.5803 7.77685 14.5579 7.77685 14.5348C7.77685 13.7913 7.26031 13.1376 6.55007 12.9399V12.6668C6.55007 12.4216 6.35135 12.2224 6.10563 12.2224C5.86042 12.2224 5.66119 12.4211 5.66119 12.6668V12.9369C5.37855 13.0148 5.12555 13.1648 4.9238 13.3665C4.27182 14.0185 4.27336 15.0777 4.9248 15.7299C5.12679 15.9324 5.37929 16.0829 5.66091 16.1608V17.6451C5.62096 17.6174 5.58353 17.5855 5.54885 17.5511C5.40112 17.4031 5.32023 17.2125 5.32098 17.0032C5.32198 16.7587 5.12476 16.5597 4.88006 16.5587C4.63535 16.559 4.4361 16.7562 4.43559 17.0004ZM6.54898 17.6466C6.58792 17.6195 6.6246 17.5893 6.65801 17.5559C6.96603 17.2479 6.96427 16.7532 6.65701 16.4454C6.62385 16.4123 6.58792 16.3821 6.54923 16.3555V17.6466L6.54898 17.6466ZM5.66038 13.9047C5.62144 13.9318 5.58475 13.9619 5.55134 13.9954C5.24332 14.3034 5.24508 14.798 5.55235 15.1059C5.58551 15.139 5.62144 15.1692 5.66013 15.1958V13.9047L5.66038 13.9047ZM6.10456 10.9247C3.42564 10.9247 1.25366 13.0967 1.25366 15.7756C1.25366 18.4546 3.42564 20.6265 6.10456 20.6265C8.78348 20.6265 10.9555 18.4546 10.9555 15.7756C10.9555 13.0965 8.78348 10.9247 6.10456 10.9247ZM6.10456 11.8136C3.91605 11.8136 2.14233 13.5873 2.14233 15.7758C2.14233 17.9643 3.91605 19.7381 6.10456 19.7381C8.29307 19.7381 10.0668 17.9643 10.0668 15.7758C10.0668 13.5873 8.29281 11.8136 6.10456 11.8136ZM28.6579 8.94976C28.3785 8.94976 28.1501 9.17764 28.1501 9.45751V29.3185C28.1501 29.5979 28.378 29.8263 28.6579 29.8263H31.0492C31.3286 29.8263 31.5569 29.5984 31.5569 29.3185V9.45687C31.5569 9.17749 31.3291 8.94912 31.0492 8.94912H28.6579V8.94976ZM22.0577 16.8717C21.7783 16.8717 21.5499 17.0995 21.5499 17.3794V29.3185C21.5499 29.5979 21.7778 29.8263 22.0577 29.8263H24.449C24.7284 29.8263 24.9567 29.5984 24.9567 29.3185V17.3794C24.9567 17.0995 24.7289 16.8717 24.449 16.8717H22.0577ZM15.4575 13.3134C15.1776 13.3134 14.9498 13.5413 14.9498 13.8211V29.3189C14.9498 29.5983 15.1776 29.8267 15.4575 29.8267H17.8488C18.1287 29.8267 18.3566 29.5988 18.3566 29.3189V13.8211C18.3566 13.5413 18.1287 13.3134 17.8488 13.3134H15.4575ZM11.7558 19.8943C10.9141 21.0472 9.72804 21.9333 8.34922 22.4004V29.319C8.34922 29.5983 8.57709 29.8267 8.85697 29.8267H11.2483C11.5281 29.8267 11.756 29.5988 11.756 29.319L11.7563 19.894L11.7558 19.8943Z" fill="#00245B"/>
</svg>
