<svg width="32" height="33" viewBox="0 0 32 33" fill="none" xmlns="http://www.w3.org/2000/svg">
<path d="M21.5167 25.3281C21.5167 25.0237 21.2689 24.7764 20.965 24.7764H11.0341C10.7302 24.7764 10.4824 25.0237 10.4824 25.3281C10.4824 25.6325 10.7302 25.8798 11.0341 25.8798H20.965C21.2689 25.8798 21.5167 25.6325 21.5167 25.3281Z" fill="#179F91"/>
<path d="M10.6725 19.065C11.8476 20.3379 12.5399 21.9576 12.6636 23.6728H19.3352C19.4589 21.9571 20.1512 20.3372 21.3268 19.0637L23.3406 16.8822C25.0108 15.0744 25.9305 12.7222 25.9305 10.261C25.9305 4.87915 21.552 0.500427 16.1698 0.500427H15.829C10.4471 0.500427 6.06836 4.87889 6.06836 10.261C6.06836 12.7223 6.98805 15.0738 8.657 16.8822L10.6725 19.065ZM24.8273 10.4318H23.7239C23.7239 10.087 23.7007 9.73991 23.6554 9.40125L24.749 9.25494C24.8014 9.64237 24.8273 10.038 24.8273 10.4318ZM15.9999 1.60436C19.9584 1.60436 23.4578 4.2664 24.5101 8.07802L23.4464 8.3716C22.5262 5.03692 19.4637 2.70767 15.9998 2.70767L15.9999 1.60436ZM10.4827 8.22493C11.397 8.22493 12.1379 7.48406 12.1379 6.56979C12.1379 6.45895 12.1263 6.35009 12.1053 6.24541C12.1053 6.24541 13.793 5.46639 15.9999 5.46639C18.2067 5.46639 19.8944 6.24541 19.8944 6.24541C19.8735 6.35009 19.8619 6.45895 19.8619 6.56979C19.8619 7.48406 20.6028 8.22493 21.517 8.22493V9.10666C21.517 12.7275 19.8454 16.1453 16.9868 18.3685C16.705 18.588 16.3575 18.7072 15.9999 18.7072C15.6423 18.7072 15.2947 18.588 15.013 18.3685C12.1544 16.1457 10.4828 12.7272 10.4828 9.10666L10.4827 8.22493ZM7.17243 10.4318H8.27586C8.27586 10.7749 8.29901 11.121 8.34384 11.4596L7.25024 11.6047C7.19827 11.2175 7.17243 10.823 7.17243 10.4318ZM7.48253 12.7583L8.5473 12.4682C8.6372 12.7987 8.75099 13.1253 8.88375 13.4408L7.86752 13.8706C7.71481 13.5103 7.58572 13.1357 7.48253 12.7583ZM9.34675 14.3583C9.49084 14.6011 9.65019 14.8401 9.82063 15.0671L8.93789 15.7287C8.74381 15.4693 8.56154 15.1974 8.39775 14.9203L9.34675 14.3583Z" fill="#179F91"/>
<path d="M15.9997 30.2935C17.8253 30.2935 19.31 28.8088 19.31 26.9832H12.6895C12.6895 28.8088 14.1742 30.2935 15.9997 30.2935Z" fill="#179F91"/>
<path d="M27.5857 23.6729C26.8294 23.6729 26.0801 23.87 25.4197 24.2434L24.9646 24.501L24.6833 24.0606C23.8656 22.7813 22.4757 22.0178 20.9651 22.0178C20.9095 22.0178 20.8553 22.025 20.8001 22.0272C20.6102 22.5552 20.4868 23.107 20.4388 23.673H20.9651C21.8777 23.673 22.6203 24.4156 22.6203 25.3281C22.6203 26.2407 21.8777 26.9833 20.9651 26.9833H20.4134C20.4134 29.417 18.4334 31.397 15.9997 31.397C13.566 31.397 11.586 29.417 11.586 26.9833H11.0343C10.1217 26.9833 9.37913 26.2407 9.37913 25.3281C9.37913 24.4156 10.1217 23.673 11.0343 23.673H11.5601C11.4387 22.2363 10.8478 20.8824 9.86141 19.8142L9.51609 19.4396C6.71218 20.0984 4.64007 22.511 4.43761 25.4141L4.39623 26.0111L3.80486 25.9212C3.61644 25.8932 3.45979 25.8799 3.31029 25.8799C1.48471 25.8799 0 27.3646 0 29.1901C0 31.0157 1.48471 32.5004 3.31029 32.5004H27.5857C30.0194 32.5004 31.9994 30.5204 31.9994 28.0867C31.9994 25.653 30.0194 23.673 27.5857 23.673L27.5857 23.6729ZM6.6206 31.3969H3.31031C2.09333 31.3969 1.10346 30.4071 1.10346 29.1901H2.20689C2.20689 29.7987 2.70171 30.2935 3.31031 30.2935H6.6206V31.3969ZM8.82746 31.3969H7.72403V30.2935H8.82746V31.3969ZM29.7926 28.0866C29.7926 26.8697 28.8027 25.8798 27.5857 25.8798V24.7764C29.4113 24.7764 30.896 26.2611 30.896 28.0866H29.7926Z" fill="#179F91"/>
<path d="M16.5515 13.7421H15.4481C15.1442 13.7421 14.8964 13.4943 14.8964 13.1904H13.793C13.793 14.1029 14.5355 14.8455 15.4481 14.8455V15.9489H16.5515V14.8455C17.4641 14.8455 18.2067 14.1029 18.2067 13.1904C18.2067 12.2778 17.4641 11.5352 16.5515 11.5352H15.4481C15.1442 11.5352 14.8964 11.2874 14.8964 10.9835C14.8964 10.6796 15.1442 10.4318 15.4481 10.4318H16.5515C16.8555 10.4318 17.1033 10.6796 17.1033 10.9835H18.2067C18.2067 10.0709 17.4641 9.32836 16.5515 9.32836V8.22493H15.4481V9.32836C14.5355 9.32836 13.793 10.0709 13.793 10.9835C13.793 11.8961 14.5355 12.6386 15.4481 12.6386H16.5515C16.8555 12.6386 17.1033 12.8864 17.1033 13.1904C17.1033 13.4943 16.8555 13.7421 16.5515 13.7421Z" fill="#179F91"/>
<path d="M28.1377 9.88005H31.448V10.9835H28.1377V9.88005Z" fill="#179F91"/>
<path d="M27.001 5.27781L30.059 4.01057L30.4815 5.03002L27.4234 6.29726L27.001 5.27781Z" fill="#179F91"/>
<path d="M1.5166 5.02963L1.93876 4.01019L4.99709 5.27693L4.57493 6.29637L1.5166 5.02963Z" fill="#179F91"/>
<path d="M0.551758 9.88005H3.86204V10.9835H0.551758V9.88005Z" fill="#179F91"/>
<path d="M1.5166 15.8335L4.57467 14.5663L4.99708 15.5857L1.93901 16.853L1.5166 15.8335Z" fill="#179F91"/>
<path d="M27.002 15.5851L27.4241 14.5657L30.4824 15.8324L30.0603 16.8518L27.002 15.5851Z" fill="#179F91"/>
</svg>
