<svg width="1184" height="260" viewBox="0 0 1184 260" fill="none" xmlns="http://www.w3.org/2000/svg">
<path d="M0 91.3886C0 77.455 0 70.4882 2.63152 64.6265C4.90171 59.5698 8.78662 54.9881 13.4042 51.9218C18.7568 48.3674 25.4255 47.2623 38.7628 45.0522C123.812 30.9586 339.731 0.000732422 595.419 0.000732422C867.644 0.000732422 1067.18 30.2289 1146.42 44.5438C1159.2 46.8531 1165.59 48.0077 1170.85 51.578C1175.35 54.6308 1179.22 59.2636 1181.42 64.2321C1184 70.0427 1184 76.8086 1184 90.3403V176.988C1184 191.516 1184 198.781 1181.24 204.763C1178.84 209.952 1174.82 214.533 1169.99 217.579C1164.41 221.089 1157.38 222.006 1143.32 223.839C1055.82 235.242 837.942 260.001 595.419 260.001C352.222 260.001 129.73 235.105 40.863 223.744C26.7205 221.936 19.6492 221.032 14.0582 217.525C9.20424 214.48 5.17461 209.903 2.76986 204.702C0 198.711 0 191.419 0 176.835V91.3886Z" fill="#179F91"/>
<path d="M282 227.001C281.543 215.013 269.803 205.203 256.583 198.067C239.155 188.66 217.335 191.177 199.182 183.26C186.642 177.792 174.23 166.334 167.889 144.42C161.747 123.197 143.955 112.903 124.499 108.618C91.5718 101.365 48.2119 104.196 39.6512 71.5852C37.5699 63.657 37.2723 54.4722 39.8248 44.0007" stroke="white" stroke-linecap="square"/>
<path d="M261 226.001C257.232 217.947 248.578 214.445 238.685 212.32C219.387 208.175 197.852 211.308 179.73 203.485C167.142 198.051 154.665 186.62 148.3 164.699C142.132 143.457 124.22 133.193 104.667 128.947C71.8259 121.814 34.0653 120.705 22.703 89.0776C18.2029 76.5517 16.3176 62.277 19.8097 48.0007" stroke="white" stroke-linecap="square"/>
<path d="M757 227.001C757.457 215.013 769.197 205.203 782.417 198.067C799.845 188.66 821.665 191.177 839.818 183.26C852.358 177.792 864.77 166.334 871.111 144.42C877.253 123.197 895.045 112.903 914.501 108.618C947.428 101.365 990.788 104.196 999.349 71.5852C1001.43 63.657 1001.73 54.4722 999.175 44.0007" stroke="white" stroke-linecap="square"/>
<path d="M778 226.001C781.768 217.947 790.422 214.445 800.315 212.32C819.613 208.175 841.148 211.308 859.27 203.485C871.858 198.051 884.335 186.62 890.7 164.699C896.868 143.457 914.78 133.193 934.333 128.947C967.174 121.814 1004.93 120.705 1016.3 89.0776C1020.8 76.5517 1022.68 62.277 1019.19 48.0007" stroke="white" stroke-linecap="square"/>
</svg>
