<svg width="391" height="117" viewBox="0 0 391 117" fill="none" xmlns="http://www.w3.org/2000/svg">
<path d="M159.984 63.4902C159.591 62.2621 159.169 61.0051 158.718 59.7194C158.267 58.4337 157.816 57.1384 157.365 55.8623H143.596C143.155 57.148 142.704 58.4337 142.253 59.729C141.802 61.0243 141.389 62.2812 141.006 63.4902H132.764C134.088 59.6906 135.345 56.1789 136.544 52.955C137.734 49.7311 138.895 46.6992 140.037 43.8495C141.178 40.9998 142.301 38.294 143.404 35.7322C144.508 33.1704 145.659 30.6661 146.849 28.229H154.371C155.532 30.6661 156.674 33.1704 157.797 35.7322C158.919 38.294 160.052 40.9998 161.193 43.8495C162.335 46.6992 163.506 49.7311 164.695 52.955C165.885 56.1789 167.152 59.6906 168.476 63.4902H159.984ZM150.447 36.2216C150.274 36.7301 150.006 37.4305 149.67 38.3132C149.324 39.196 148.941 40.213 148.509 41.3644C148.077 42.5158 147.588 43.7919 147.05 45.1832C146.513 46.5744 145.966 48.0328 145.41 49.5488H155.494C154.957 48.0233 154.429 46.5552 153.93 45.164C153.421 43.7727 152.942 42.4966 152.491 41.3452C152.04 40.1938 151.637 39.1768 151.291 38.294C150.936 37.4113 150.658 36.7205 150.447 36.2216Z" fill="white"/>
<path d="M182.369 28.229C182.983 29.3516 183.684 30.7333 184.49 32.374C185.286 34.0147 186.121 35.7994 186.984 37.7184C187.848 39.6373 188.712 41.5947 189.556 43.5904C190.41 45.5958 191.206 47.4763 191.955 49.2418C192.703 47.4763 193.499 45.5958 194.353 43.5904C195.207 41.5947 196.061 39.6277 196.925 37.7184C197.788 35.7994 198.623 34.0243 199.429 32.374C200.225 30.7333 200.935 29.3516 201.549 28.229H208.774C209.11 30.5702 209.427 33.1896 209.715 36.0872C210.003 38.9849 210.262 42.0073 210.482 45.1448C210.703 48.2823 210.904 51.4294 211.096 54.5862C211.279 57.7429 211.442 60.7077 211.576 63.4902H203.843C203.737 60.0648 203.603 56.3324 203.44 52.3026C203.267 48.2631 203.018 44.1949 202.682 40.0883C202.068 41.5083 201.386 43.0915 200.638 44.8186C199.89 46.5456 199.151 48.2823 198.422 50.0094C197.692 51.7365 196.982 53.3964 196.301 54.9699C195.62 56.5435 195.044 57.8964 194.564 59.0094H189.019C188.539 57.8868 187.963 56.5435 187.282 54.9699C186.601 53.3964 185.891 51.7365 185.161 50.0094C184.432 48.2823 183.693 46.5456 182.945 44.8186C182.197 43.0915 181.515 41.5083 180.901 40.0883C180.565 44.1949 180.306 48.2631 180.143 52.3026C179.971 56.342 179.836 60.0744 179.74 63.4902H172.007C172.141 60.7077 172.304 57.7429 172.487 54.5862C172.669 51.4294 172.88 48.2823 173.101 45.1448C173.321 42.0073 173.571 38.9849 173.859 36.0872C174.146 33.1896 174.463 30.5702 174.799 28.229H182.369Z" fill="white"/>
<path d="M225.834 27.8262C231.092 27.8262 235.122 28.7473 237.943 30.5991C240.754 32.4509 242.165 35.4733 242.165 39.6758C242.165 43.9168 240.745 46.9775 237.895 48.8581C235.045 50.7387 230.977 51.679 225.69 51.679H223.196V63.4807H215.261V28.7377C216.988 28.4018 218.82 28.162 220.759 28.0277C222.678 27.8933 224.366 27.8262 225.834 27.8262ZM226.333 34.5906C225.758 34.5906 225.191 34.6097 224.625 34.6385C224.069 34.6769 223.58 34.7057 223.177 34.7441V44.9147H225.671C228.415 44.9147 230.488 44.5404 231.879 43.792C233.27 43.0436 233.961 41.6524 233.961 39.6183C233.961 38.6396 233.779 37.824 233.424 37.1716C233.069 36.5287 232.56 36.0106 231.898 35.6172C231.236 35.2238 230.43 34.9552 229.48 34.8016C228.54 34.6673 227.494 34.5906 226.333 34.5906Z" fill="white"/>
<path d="M266.372 63.4902C265.979 62.2621 265.557 61.0051 265.106 59.7194C264.655 58.4337 264.204 57.1384 263.753 55.8623H249.994C249.552 57.148 249.101 58.4337 248.65 59.729C248.199 61.0243 247.787 62.2812 247.403 63.4902H239.161C240.485 59.6906 241.742 56.1789 242.942 52.955C244.131 49.7311 245.292 46.6992 246.434 43.8495C247.576 40.9998 248.698 38.294 249.802 35.7322C250.905 33.1704 252.057 30.6661 253.246 28.229H260.769C261.93 30.6661 263.072 33.1704 264.194 35.7322C265.317 38.294 266.449 40.9998 267.591 43.8495C268.733 46.6992 269.903 49.7311 271.093 52.955C272.283 56.1789 273.549 59.6906 274.873 63.4902H266.372ZM256.844 36.2216C256.672 36.7301 256.403 37.4305 256.067 38.3132C255.722 39.196 255.338 40.213 254.906 41.3644C254.475 42.5158 253.985 43.7919 253.448 45.1832C252.911 46.5744 252.364 48.0328 251.807 49.5488H261.891C261.354 48.0233 260.826 46.5552 260.327 45.164C259.819 43.7727 259.339 42.4966 258.888 41.3452C258.437 40.1938 258.034 39.1768 257.689 38.294C257.324 37.4113 257.056 36.7205 256.844 36.2216Z" fill="white"/>
<path d="M292.48 64.2005C286.752 64.2005 282.386 62.6078 279.383 59.4223C276.38 56.2368 274.883 51.708 274.883 45.8359C274.883 42.9191 275.343 40.3189 276.255 38.0257C277.166 35.7325 278.423 33.8039 280.016 32.2304C281.609 30.6568 283.509 29.4574 285.715 28.6419C287.922 27.8263 290.311 27.4233 292.892 27.4233C294.38 27.4233 295.742 27.5385 296.961 27.7496C298.179 27.9702 299.254 28.2293 300.165 28.5171C301.077 28.805 301.844 29.1025 302.459 29.4095C303.073 29.7165 303.504 29.9564 303.783 30.1195L301.489 36.5289C300.405 35.9532 299.139 35.4639 297.699 35.0513C296.26 34.6483 294.619 34.4372 292.787 34.4372C291.568 34.4372 290.369 34.6387 289.198 35.0513C288.028 35.4543 286.992 36.1067 286.099 37.0086C285.197 37.9105 284.478 39.0715 283.94 40.4916C283.393 41.9116 283.125 43.6483 283.125 45.6824C283.125 47.3135 283.307 48.8295 283.662 50.24C284.017 51.6504 284.593 52.8594 285.389 53.8764C286.186 54.8935 287.231 55.6995 288.517 56.2943C289.803 56.8892 291.367 57.1867 293.199 57.1867C294.351 57.1867 295.387 57.1195 296.299 56.9852C297.22 56.8508 298.026 56.6877 298.736 56.5054C299.446 56.3231 300.079 56.1024 300.616 55.8722C301.163 55.6323 301.653 55.4116 302.094 55.2101L304.282 61.5715C303.159 62.2528 301.585 62.8573 299.551 63.4042C297.517 63.9319 295.157 64.2005 292.48 64.2005Z" fill="white"/>
<path d="M308.379 28.229H316.314V63.4806H308.379V28.229Z" fill="white"/>
<path d="M321.13 63.4901V28.2385H344.733V34.907H329.065V42.2854H343.006V48.9539H329.065V63.4997H321.13V63.4901Z" fill="white"/>
<path d="M349.195 28.229H357.13V63.4806H349.195V28.229Z" fill="white"/>
<path d="M379.199 64.2005C373.47 64.2005 369.105 62.6078 366.102 59.4223C363.098 56.2368 361.602 51.708 361.602 45.8359C361.602 42.9191 362.062 40.3189 362.974 38.0257C363.885 35.7325 365.142 33.8039 366.735 32.2304C368.328 30.6568 370.227 29.4574 372.434 28.6419C374.641 27.8263 377.03 27.4233 379.611 27.4233C381.098 27.4233 382.461 27.5385 383.679 27.7496C384.898 27.9702 385.973 28.2293 386.884 28.5171C387.796 28.805 388.563 29.1025 389.177 29.4095C389.791 29.7165 390.223 29.9564 390.501 30.1195L388.208 36.5289C387.124 35.9532 385.857 35.4639 384.418 35.0513C382.979 34.6483 381.338 34.4372 379.506 34.4372C378.287 34.4372 377.088 34.6387 375.917 35.0513C374.747 35.4543 373.71 36.1067 372.818 37.0086C371.916 37.9105 371.196 39.0715 370.659 40.4916C370.112 41.9116 369.844 43.6483 369.844 45.6824C369.844 47.3135 370.026 48.8295 370.381 50.24C370.736 51.6504 371.312 52.8594 372.108 53.8764C372.904 54.8935 373.95 55.6995 375.236 56.2943C376.522 56.8892 378.086 57.1867 379.918 57.1867C381.07 57.1867 382.106 57.1195 383.017 56.9852C383.938 56.8508 384.744 56.6877 385.454 56.5054C386.164 56.3231 386.798 56.1024 387.335 55.8722C387.882 55.6323 388.371 55.4116 388.813 55.2101L391 61.5715C389.878 62.2528 388.304 62.8573 386.27 63.4042C384.236 63.9319 381.876 64.2005 379.199 64.2005Z" fill="white"/>
<path d="M142.598 94.1173C138.99 94.1173 136.246 93.1098 134.356 91.1044C132.466 89.0991 131.525 86.2494 131.525 82.5554C131.525 80.7228 131.813 79.0821 132.389 77.6428C132.965 76.2036 133.751 74.9851 134.759 73.9968C135.766 73.0085 136.956 72.2505 138.347 71.742C139.739 71.2334 141.235 70.9744 142.867 70.9744C143.807 70.9744 144.661 71.0415 145.428 71.1855C146.196 71.3294 146.868 71.4829 147.443 71.6652C148.019 71.8475 148.499 72.0298 148.883 72.2217C149.266 72.4136 149.545 72.5671 149.717 72.6727L148.278 76.7025C147.597 76.3379 146.8 76.0309 145.889 75.7718C144.977 75.5127 143.951 75.388 142.799 75.388C142.032 75.388 141.274 75.5127 140.545 75.7718C139.806 76.0309 139.153 76.4435 138.587 77C138.021 77.5661 137.57 78.2953 137.225 79.1972C136.879 80.0895 136.716 81.1833 136.716 82.4594C136.716 83.4861 136.831 84.436 137.052 85.3283C137.273 86.2111 137.637 86.9786 138.136 87.6215C138.635 88.2644 139.297 88.7729 140.103 89.1375C140.919 89.5117 141.897 89.694 143.049 89.694C143.778 89.694 144.431 89.6556 145.006 89.5693C145.582 89.4829 146.09 89.387 146.541 89.2622C146.992 89.1471 147.386 89.0128 147.722 88.8592C148.067 88.7057 148.374 88.5714 148.652 88.4467L150.024 92.4477C149.324 92.8699 148.326 93.2633 147.05 93.5991C145.764 93.9445 144.277 94.1173 142.598 94.1173Z" fill="#179F91"/>
<path d="M169.003 93.6663C168.753 92.8987 168.494 92.1023 168.206 91.2867C167.919 90.4712 167.64 89.6652 167.362 88.8592H158.698C158.42 89.6652 158.132 90.4808 157.854 91.2963C157.575 92.1119 157.307 92.8987 157.067 93.6663H151.876C152.711 91.2772 153.507 89.0703 154.256 87.0362C155.004 85.0117 155.733 83.1023 156.453 81.3081C157.172 79.5138 157.873 77.8155 158.573 76.2036C159.274 74.5916 159.993 73.0181 160.742 71.4829H165.472C166.201 73.0181 166.921 74.5916 167.631 76.2036C168.341 77.8155 169.051 79.5138 169.77 81.3081C170.49 83.1023 171.219 85.0117 171.977 87.0362C172.726 89.0607 173.522 91.2772 174.357 93.6663H169.003ZM163.006 76.5106C162.891 76.8368 162.728 77.2686 162.517 77.8251C162.306 78.3816 162.056 79.0245 161.787 79.7441C161.509 80.4733 161.212 81.2697 160.866 82.1428C160.531 83.0159 160.185 83.9371 159.83 84.8965H166.172C165.837 83.9371 165.501 83.0159 165.184 82.1428C164.867 81.2697 164.56 80.4637 164.273 79.7345C163.985 79.0053 163.735 78.372 163.515 77.8155C163.313 77.259 163.14 76.8273 163.006 76.5106Z" fill="#179F91"/>
<path d="M183.866 89.8569C184.566 89.8569 185.152 89.7993 185.612 89.6842C186.073 89.5691 186.437 89.4059 186.716 89.2045C186.994 89.003 187.186 88.7631 187.291 88.4848C187.397 88.2066 187.454 87.8996 187.454 87.5542C187.454 86.825 187.109 86.2301 186.428 85.7407C185.746 85.261 184.566 84.7429 182.906 84.1863C182.177 83.9273 181.458 83.6394 180.728 83.3036C179.999 82.9774 179.356 82.5552 178.771 82.0563C178.195 81.5574 177.725 80.9433 177.361 80.2333C176.996 79.5232 176.814 78.6501 176.814 77.6235C176.814 76.5968 177.006 75.6757 177.389 74.8505C177.773 74.0254 178.32 73.3345 179.02 72.7492C179.721 72.1735 180.575 71.7322 181.582 71.4251C182.59 71.1181 183.712 70.9646 184.979 70.9646C186.476 70.9646 187.761 71.1277 188.855 71.4443C189.949 71.761 190.841 72.116 191.542 72.4998L190.103 76.4337C189.479 76.117 188.798 75.8292 188.04 75.5893C187.282 75.3399 186.37 75.2247 185.305 75.2247C184.106 75.2247 183.252 75.3878 182.724 75.7237C182.196 76.0595 181.937 76.5584 181.937 77.2492C181.937 77.6522 182.033 77.9976 182.225 78.2759C182.417 78.5541 182.686 78.8036 183.041 79.0243C183.396 79.245 183.799 79.4465 184.259 79.6288C184.72 79.8111 185.228 79.9934 185.785 80.1853C186.936 80.617 187.944 81.0296 188.798 81.4518C189.652 81.8644 190.362 82.3537 190.928 82.9102C191.494 83.4667 191.916 84.1192 192.194 84.8676C192.472 85.616 192.607 86.5179 192.607 87.5925C192.607 89.665 191.878 91.2674 190.429 92.4092C188.98 93.551 186.792 94.1266 183.866 94.1266C182.887 94.1266 181.995 94.0691 181.208 93.9539C180.421 93.8388 179.721 93.6949 179.107 93.5222C178.502 93.3494 177.975 93.1672 177.543 92.9753C177.101 92.7834 176.737 92.6011 176.439 92.4284L177.85 88.4561C178.512 88.8207 179.328 89.1469 180.297 89.4348C181.266 89.7226 182.455 89.8569 183.866 89.8569Z" fill="#179F91"/>
<path d="M209.829 71.4829H214.828V93.6663H209.829V84.2537H201.443V93.6663H196.444V71.4829H201.443V79.9648H209.829V71.4829Z" fill="#179F91"/>
<path d="M227.34 93.9637C226.121 93.9637 224.913 93.9253 223.704 93.8485C222.495 93.7718 221.247 93.5991 219.942 93.3208V71.8091C220.969 71.6172 222.092 71.4733 223.301 71.3773C224.519 71.2814 225.651 71.2334 226.697 71.2334C228.108 71.2334 229.403 71.3389 230.583 71.5404C231.763 71.7419 232.79 72.0873 233.644 72.5767C234.498 73.066 235.169 73.7089 235.649 74.5148C236.129 75.3112 236.369 76.2995 236.369 77.4797C236.369 79.2547 235.515 80.646 233.807 81.6726C235.217 82.21 236.177 82.9296 236.685 83.8507C237.194 84.7718 237.453 85.808 237.453 86.9594C237.453 89.291 236.609 91.0372 234.91 92.2078C233.222 93.3688 230.689 93.9637 227.34 93.9637ZM224.817 80.195H227.254C228.789 80.195 229.892 79.9935 230.554 79.6001C231.216 79.2067 231.543 78.5735 231.543 77.6907C231.543 76.7984 231.197 76.1652 230.516 75.8006C229.835 75.436 228.827 75.2537 227.503 75.2537C227.071 75.2537 226.62 75.2632 226.121 75.2728C225.632 75.2824 225.191 75.3112 224.807 75.3496V80.195H224.817ZM224.817 84.0042V89.7323C225.181 89.7707 225.575 89.8091 225.997 89.8283C226.419 89.8475 226.889 89.8571 227.407 89.8571C228.904 89.8571 230.103 89.646 231.024 89.2142C231.946 88.792 232.406 87.9957 232.406 86.8443C232.406 85.8176 232.022 85.0884 231.255 84.647C230.487 84.2057 229.384 83.9946 227.954 83.9946H224.817V84.0042Z" fill="#179F91"/>
<path d="M256.028 93.6663C255.779 92.8987 255.52 92.1023 255.232 91.2867C254.944 90.4712 254.666 89.6652 254.387 88.8592H245.723C245.445 89.6652 245.157 90.4808 244.879 91.2963C244.601 92.1119 244.332 92.8987 244.092 93.6663H238.901C239.736 91.2772 240.532 89.0703 241.281 87.0362C242.029 85.0117 242.759 83.1023 243.478 81.3081C244.198 79.5138 244.898 77.8155 245.599 76.2036C246.299 74.5916 247.019 73.0181 247.767 71.4829H252.497C253.227 73.0181 253.946 74.5916 254.656 76.2036C255.366 77.8155 256.076 79.5138 256.796 81.3081C257.515 83.1023 258.245 85.0117 259.003 87.0362C259.751 89.0607 260.547 91.2772 261.382 93.6663H256.028ZM250.022 76.5106C249.907 76.8368 249.744 77.2686 249.532 77.8251C249.321 78.3816 249.072 79.0245 248.803 79.7441C248.525 80.4733 248.228 81.2697 247.882 82.1428C247.546 83.0159 247.201 83.9371 246.846 84.8965H253.188C252.852 83.9371 252.516 83.0159 252.2 82.1428C251.883 81.2697 251.576 80.4637 251.288 79.7345C251 79.0053 250.751 78.372 250.53 77.8155C250.329 77.259 250.156 76.8273 250.022 76.5106Z" fill="#179F91"/>
<path d="M273.539 94.1173C269.932 94.1173 267.187 93.1098 265.297 91.1044C263.407 89.0991 262.467 86.2494 262.467 82.5554C262.467 80.7228 262.755 79.0821 263.33 77.6428C263.906 76.2036 264.693 74.9851 265.7 73.9968C266.708 73.0085 267.897 72.2505 269.289 71.742C270.68 71.2334 272.177 70.9744 273.808 70.9744C274.748 70.9744 275.602 71.0415 276.37 71.1855C277.137 71.3294 277.809 71.4829 278.385 71.6652C278.96 71.8475 279.44 72.0298 279.824 72.2217C280.208 72.4136 280.486 72.5671 280.659 72.6727L279.219 76.7025C278.538 76.3379 277.742 76.0309 276.83 75.7718C275.919 75.5127 274.892 75.388 273.741 75.388C272.973 75.388 272.215 75.5127 271.486 75.7718C270.747 76.0309 270.095 76.4435 269.529 77C268.963 77.5661 268.512 78.2953 268.166 79.1972C267.821 80.0895 267.658 81.1833 267.658 82.4594C267.658 83.4861 267.773 84.436 267.993 85.3283C268.214 86.2111 268.579 86.9786 269.078 87.6215C269.577 88.2644 270.239 88.7729 271.045 89.1375C271.86 89.5117 272.839 89.694 273.99 89.694C274.719 89.694 275.372 89.6556 275.948 89.5693C276.523 89.4829 277.032 89.387 277.483 89.2622C277.934 89.1471 278.327 89.0128 278.663 88.8592C279.008 88.7057 279.315 88.5714 279.594 88.4467L280.966 92.4477C280.265 92.8699 279.267 93.2633 277.991 93.5991C276.715 93.9445 275.228 94.1173 273.539 94.1173Z" fill="#179F91"/>
<path d="M297.248 93.6663C296.797 92.9467 296.27 92.1599 295.656 91.3251C295.042 90.4904 294.389 89.6364 293.679 88.7921C292.979 87.9381 292.24 87.1226 291.463 86.3454C290.695 85.5682 289.918 84.8774 289.15 84.2729V93.6663H284.151V71.4829H289.15V79.8208C290.436 78.468 291.741 77.0575 293.065 75.5895C294.389 74.1215 295.617 72.7494 296.74 71.4829H302.67C301.163 73.2772 299.638 75.0138 298.112 76.6737C296.586 78.3336 294.974 80.0031 293.286 81.6822C295.061 83.1599 296.769 84.9157 298.419 86.9499C300.069 88.984 301.652 91.2196 303.178 93.6759H297.248V93.6663Z" fill="#179F91"/>
<path d="M58.9502 0.000976562C26.6442 0.000976562 0.450195 26.195 0.450195 58.501C0.450195 90.8069 26.6442 117.001 58.9502 117.001C91.2562 117.001 117.45 90.8069 117.45 58.501C117.45 26.1854 91.2658 0.000976562 58.9502 0.000976562ZM80.7306 91.7952L74.5131 76.549L70.7903 67.405L68.5931 62.0223L64.8606 52.888L59.4204 39.5511L53.9801 52.888L50.2572 62.0223L48.0504 67.405L44.3276 76.549L38.1101 91.7952H28.2466L34.4641 76.549H31.0963V67.405H38.1869L40.3841 62.0223H31.0963V52.888H44.1165L54.4886 27.4423L59.2572 15.7558L59.4204 15.679L59.5835 15.7558L64.3617 27.4519L74.7338 52.888H86.2572V62.0223H78.4566L80.6634 67.405H86.2572V76.549H84.3862L90.6037 91.7952H80.7306Z" fill="white"/>
</svg>
