<svg width="219" height="66" viewBox="0 0 219 66" fill="none" xmlns="http://www.w3.org/2000/svg">
<path d="M89.4583 35.6014C89.2377 34.9128 89.0009 34.2079 88.7481 33.487C88.4952 32.766 88.2423 32.0397 87.9894 31.3241H80.2687C80.0212 32.045 79.7683 32.766 79.5155 33.4924C79.2626 34.2187 79.0312 34.9235 78.816 35.6014H74.1943C74.9368 33.4708 75.6416 31.5016 76.3142 29.6938C76.9813 27.8861 77.6324 26.1859 78.2726 24.5879C78.9129 22.99 79.5424 21.4727 80.1611 20.0362C80.7798 18.5997 81.4255 17.1954 82.0926 15.8288H86.3108C86.9618 17.1954 87.6021 18.5997 88.2316 20.0362C88.861 21.4727 89.4959 22.99 90.1362 24.5879C90.7764 26.1859 91.4328 27.8861 92.1 29.6938C92.7672 31.5016 93.4774 33.4708 94.2198 35.6014H89.4583ZM84.1102 20.3106C84.0134 20.5958 83.8628 20.9885 83.6744 21.4835C83.4808 21.9785 83.2655 22.5488 83.0234 23.1944C82.7813 23.8401 82.5069 24.5557 82.2056 25.3358C81.9043 26.116 81.5976 26.9338 81.2856 27.7838H86.9403C86.639 26.9284 86.3431 26.1052 86.0633 25.325C85.7781 24.5449 85.5091 23.8293 85.2562 23.1837C85.0034 22.538 84.7774 21.9677 84.5837 21.4727C84.3846 20.9777 84.2286 20.5904 84.1102 20.3106Z" fill="#00245B"/>
<path d="M102.011 15.8288C102.355 16.4583 102.748 17.2331 103.2 18.1531C103.647 19.0731 104.115 20.0739 104.599 21.1499C105.083 22.226 105.567 23.3236 106.041 24.4427C106.52 25.5672 106.966 26.6217 107.386 27.6117C107.806 26.6217 108.252 25.5672 108.731 24.4427C109.21 23.3236 109.689 22.2206 110.173 21.1499C110.657 20.0739 111.125 19.0785 111.577 18.1531C112.024 17.2331 112.422 16.4583 112.766 15.8288H116.818C117.006 17.1416 117.183 18.6104 117.345 20.2353C117.506 21.8601 117.651 23.5549 117.775 25.3143C117.899 27.0736 118.012 28.8384 118.12 30.6085C118.222 32.3786 118.313 34.0411 118.389 35.6014H114.052C113.993 33.6807 113.918 31.5877 113.826 29.328C113.729 27.0629 113.589 24.7816 113.401 22.4789C113.057 23.2752 112.675 24.1629 112.255 25.1314C111.835 26.0998 111.421 27.0736 111.012 28.0421C110.603 29.0106 110.205 29.9413 109.823 30.8237C109.441 31.7061 109.118 32.4647 108.849 33.0888H105.739C105.47 32.4593 105.148 31.7061 104.766 30.8237C104.384 29.9413 103.985 29.0106 103.577 28.0421C103.168 27.0736 102.753 26.0998 102.334 25.1314C101.914 24.1629 101.532 23.2752 101.188 22.4789C100.999 24.7816 100.854 27.0629 100.763 29.328C100.666 31.5931 100.591 33.686 100.537 35.6014H96.2002C96.2755 34.0411 96.367 32.3786 96.4692 30.6085C96.5714 28.8384 96.6898 27.0736 96.8135 25.3143C96.9373 23.5549 97.0772 21.8601 97.2386 20.2353C97.4 18.6104 97.5775 17.1416 97.7659 15.8288H102.011Z" fill="#00245B"/>
<path d="M126.383 15.603C129.332 15.603 131.591 16.1195 133.173 17.1579C134.75 18.1963 135.54 19.8911 135.54 22.2476C135.54 24.6257 134.744 26.3421 133.146 27.3966C131.548 28.4511 129.267 28.9784 126.302 28.9784H124.904V35.5962H120.454V16.1141C121.423 15.9258 122.45 15.7913 123.537 15.7159C124.613 15.6406 125.56 15.603 126.383 15.603ZM126.663 19.3961C126.34 19.3961 126.023 19.4068 125.705 19.423C125.393 19.4445 125.119 19.4606 124.893 19.4822V25.1853H126.292C127.831 25.1853 128.993 24.9755 129.773 24.5558C130.553 24.1361 130.94 23.356 130.94 22.2154C130.94 21.6666 130.838 21.2092 130.639 20.8434C130.44 20.4829 130.155 20.1924 129.784 19.9718C129.412 19.7512 128.96 19.6005 128.428 19.5144C127.9 19.4391 127.314 19.3961 126.663 19.3961Z" fill="#00245B"/>
<path d="M149.115 35.6014C148.894 34.9128 148.658 34.2079 148.405 33.487C148.152 32.766 147.899 32.0397 147.646 31.3241H139.931C139.683 32.045 139.43 32.766 139.178 33.4924C138.925 34.2187 138.693 34.9235 138.478 35.6014H133.856C134.599 33.4708 135.304 31.5016 135.976 29.6938C136.643 27.8861 137.294 26.1859 137.935 24.5879C138.575 22.99 139.204 21.4727 139.823 20.0362C140.442 18.5997 141.088 17.1954 141.755 15.8288H145.973C146.624 17.1954 147.264 18.5997 147.894 20.0362C148.523 21.4727 149.158 22.99 149.798 24.5879C150.439 26.1859 151.095 27.8861 151.762 29.6938C152.429 31.5016 153.139 33.4708 153.882 35.6014H149.115ZM143.772 20.3106C143.676 20.5958 143.525 20.9885 143.337 21.4835C143.143 21.9785 142.928 22.5488 142.686 23.1944C142.443 23.8401 142.169 24.5557 141.868 25.3358C141.566 26.116 141.26 26.9338 140.948 27.7838H146.602C146.301 26.9284 146.005 26.1052 145.725 25.325C145.44 24.5449 145.171 23.8293 144.918 23.1837C144.665 22.538 144.44 21.9677 144.246 21.4727C144.041 20.9777 143.891 20.5904 143.772 20.3106Z" fill="#00245B"/>
<path d="M163.755 35.9997C160.543 35.9997 158.095 35.1065 156.411 33.3203C154.727 31.534 153.888 28.9945 153.888 25.7018C153.888 24.0662 154.146 22.6081 154.657 21.3222C155.168 20.0363 155.873 18.9549 156.766 18.0725C157.659 17.1901 158.725 16.5176 159.962 16.0602C161.2 15.6029 162.539 15.377 163.987 15.377C164.82 15.377 165.584 15.4415 166.268 15.5599C166.951 15.6836 167.554 15.8289 168.065 15.9903C168.576 16.1517 169.006 16.3185 169.351 16.4907C169.695 16.6629 169.937 16.7974 170.093 16.8888L168.807 20.4829C168.199 20.16 167.489 19.8857 166.682 19.6543C165.875 19.4283 164.955 19.31 163.927 19.31C163.244 19.31 162.572 19.423 161.915 19.6543C161.259 19.8803 160.678 20.2461 160.177 20.7519C159.672 21.2576 159.268 21.9086 158.967 22.7049C158.66 23.5012 158.509 24.4751 158.509 25.6157C158.509 26.5303 158.612 27.3804 158.811 28.1713C159.01 28.9622 159.333 29.6402 159.779 30.2105C160.226 30.7808 160.812 31.2327 161.533 31.5663C162.254 31.8999 163.131 32.0667 164.159 32.0667C164.804 32.0667 165.385 32.029 165.897 31.9537C166.413 31.8784 166.865 31.7869 167.263 31.6847C167.661 31.5824 168.016 31.4587 168.318 31.3296C168.624 31.1951 168.899 31.0713 169.146 30.9583L170.373 34.5255C169.743 34.9075 168.861 35.2464 167.72 35.5531C166.58 35.849 165.256 35.9997 163.755 35.9997Z" fill="#00245B"/>
<path d="M172.67 15.8288H177.119V35.596H172.67V15.8288Z" fill="#00245B"/>
<path d="M179.82 35.6014V15.8341H193.056V19.5734H184.27V23.7109H192.087V27.4502H184.27V35.6067H179.82V35.6014Z" fill="#00245B"/>
<path d="M195.558 15.8288H200.007V35.596H195.558V15.8288Z" fill="#00245B"/>
<path d="M212.382 35.9997C209.17 35.9997 206.722 35.1065 205.038 33.3203C203.354 31.534 202.515 28.9945 202.515 25.7018C202.515 24.0662 202.773 22.6081 203.284 21.3222C203.795 20.0363 204.5 18.9549 205.393 18.0725C206.286 17.1901 207.352 16.5176 208.589 16.0602C209.826 15.6029 211.166 15.377 212.613 15.377C213.447 15.377 214.211 15.4415 214.895 15.5599C215.578 15.6836 216.181 15.8289 216.692 15.9903C217.203 16.1517 217.633 16.3185 217.978 16.4907C218.322 16.6629 218.564 16.7974 218.72 16.8888L217.434 20.4829C216.826 20.16 216.116 19.8857 215.309 19.6543C214.502 19.4283 213.582 19.31 212.554 19.31C211.871 19.31 211.198 19.423 210.542 19.6543C209.886 19.8803 209.305 20.2461 208.804 20.7519C208.298 21.2576 207.895 21.9086 207.594 22.7049C207.287 23.5012 207.136 24.4751 207.136 25.6157C207.136 26.5303 207.239 27.3804 207.438 28.1713C207.637 28.9622 207.96 29.6402 208.406 30.2105C208.853 30.7808 209.439 31.2327 210.16 31.5663C210.881 31.8999 211.758 32.0667 212.786 32.0667C213.431 32.0667 214.012 32.029 214.523 31.9537C215.04 31.8784 215.492 31.7869 215.89 31.6847C216.288 31.5824 216.643 31.4587 216.945 31.3296C217.251 31.1951 217.526 31.0713 217.773 30.9583L219 34.5255C218.37 34.9075 217.488 35.2464 216.347 35.5531C215.207 35.849 213.883 35.9997 212.382 35.9997Z" fill="#00245B"/>
<path d="M79.7089 52.7755C77.6859 52.7755 76.1471 52.2106 75.0872 51.0861C74.0273 49.9616 73.5 48.3637 73.5 46.2923C73.5 45.2646 73.6614 44.3446 73.9842 43.5375C74.3071 42.7305 74.7482 42.0472 75.3132 41.493C75.8781 40.9389 76.5453 40.5138 77.3254 40.2287C78.1055 39.9435 78.9449 39.7982 79.8595 39.7982C80.3868 39.7982 80.8656 39.8359 81.2961 39.9166C81.7265 39.9973 82.1031 40.0834 82.4259 40.1856C82.7488 40.2878 83.0178 40.3901 83.233 40.4977C83.4482 40.6053 83.6042 40.6914 83.7011 40.7505L82.894 43.0103C82.512 42.8058 82.0654 42.6336 81.5543 42.4884C81.0432 42.3431 80.4675 42.2732 79.8219 42.2732C79.3914 42.2732 78.9664 42.3431 78.5575 42.4884C78.1432 42.6336 77.7773 42.865 77.4599 43.1771C77.1425 43.4945 76.8896 43.9034 76.6959 44.4091C76.5022 44.9095 76.4107 45.5229 76.4107 46.2384C76.4107 46.8141 76.4753 47.3468 76.5991 47.8472C76.7228 48.3422 76.9273 48.7726 77.207 49.1331C77.4868 49.4935 77.8581 49.7787 78.31 49.9832C78.7673 50.193 79.3161 50.2952 79.9618 50.2952C80.3707 50.2952 80.7365 50.2737 81.0593 50.2253C81.3822 50.1768 81.6673 50.123 81.9202 50.0531C82.1731 49.9885 82.3936 49.9132 82.582 49.8271C82.7756 49.741 82.9478 49.6657 83.1038 49.5958L83.8732 51.8393C83.4805 52.0761 82.9209 52.2967 82.2053 52.485C81.4844 52.6787 80.6504 52.7755 79.7089 52.7755Z" fill="#179F91"/>
<path d="M94.515 52.5227C94.3751 52.0923 94.2298 51.6457 94.0684 51.1884C93.907 50.7311 93.751 50.2791 93.5949 49.8272H88.7365C88.5805 50.2791 88.4191 50.7364 88.2631 51.1938C88.107 51.6511 87.9564 52.0923 87.8219 52.5227H84.9111C85.3792 51.183 85.8258 49.9455 86.2455 48.8049C86.6651 47.6697 87.074 46.599 87.4775 45.5929C87.8811 44.5867 88.2738 43.6344 88.6666 42.7305C89.0594 41.8266 89.4629 40.9443 89.8825 40.0834H92.535C92.9439 40.9443 93.3474 41.8266 93.7456 42.7305C94.1437 43.6344 94.5419 44.5867 94.9454 45.5929C95.3489 46.599 95.7578 47.6697 96.1829 48.8049C96.6025 49.9402 97.0491 51.183 97.5172 52.5227H94.515ZM91.1523 42.9027C91.0877 43.0856 90.9963 43.3278 90.8779 43.6398C90.7595 43.9519 90.6196 44.3123 90.469 44.7159C90.313 45.1248 90.1462 45.5713 89.9525 46.0609C89.7642 46.5506 89.5705 47.0671 89.3714 47.6051H92.9278C92.7395 47.0671 92.5512 46.5506 92.3736 46.0609C92.1961 45.5713 92.0239 45.1194 91.8625 44.7105C91.7011 44.3016 91.5612 43.9465 91.4374 43.6344C91.3245 43.3224 91.2276 43.0803 91.1523 42.9027Z" fill="#179F91"/>
<path d="M102.849 50.3867C103.242 50.3867 103.57 50.3544 103.828 50.2898C104.086 50.2253 104.291 50.1338 104.447 50.0208C104.603 49.9078 104.711 49.7733 104.77 49.6173C104.829 49.4612 104.861 49.2891 104.861 49.0954C104.861 48.6865 104.667 48.3529 104.285 48.0785C103.903 47.8095 103.242 47.519 102.311 47.2069C101.902 47.0616 101.498 46.9002 101.09 46.7119C100.681 46.529 100.32 46.2923 99.992 46.0125C99.6692 45.7327 99.4055 45.3884 99.2011 44.9902C98.9966 44.5921 98.8944 44.1025 98.8944 43.5268C98.8944 42.9511 99.002 42.4346 99.2172 41.9719C99.4324 41.5092 99.7391 41.1218 100.132 40.7936C100.525 40.4708 101.003 40.2233 101.568 40.0511C102.133 39.8789 102.763 39.7928 103.473 39.7928C104.312 39.7928 105.033 39.8843 105.647 40.0619C106.26 40.2394 106.76 40.4385 107.153 40.6537L106.346 42.8596C105.996 42.6821 105.614 42.5207 105.189 42.3862C104.764 42.2463 104.253 42.1817 103.656 42.1817C102.983 42.1817 102.505 42.2732 102.209 42.4615C101.913 42.6498 101.767 42.9296 101.767 43.3169C101.767 43.5429 101.821 43.7366 101.929 43.8926C102.036 44.0487 102.187 44.1886 102.386 44.3123C102.585 44.436 102.811 44.549 103.07 44.6513C103.328 44.7535 103.613 44.8557 103.925 44.9633C104.571 45.2054 105.136 45.4368 105.614 45.6735C106.093 45.9049 106.491 46.1793 106.809 46.4913C107.126 46.8034 107.363 47.1692 107.519 47.5889C107.675 48.0086 107.75 48.5143 107.75 49.1169C107.75 50.2791 107.341 51.1776 106.529 51.8178C105.717 52.4581 104.49 52.7809 102.849 52.7809C102.3 52.7809 101.8 52.7486 101.359 52.6841C100.917 52.6195 100.525 52.5388 100.18 52.4419C99.8413 52.3451 99.5454 52.2429 99.3033 52.1353C99.0558 52.0277 98.8514 51.9254 98.6846 51.8286L99.4755 49.6011C99.8467 49.8056 100.304 49.9885 100.847 50.1499C101.391 50.3113 102.058 50.3867 102.849 50.3867Z" fill="#179F91"/>
<path d="M117.409 40.0834H120.212V52.5227H117.409V47.2446H112.706V52.5227H109.903V40.0834H112.706V44.8396H117.409V40.0834Z" fill="#179F91"/>
<path d="M127.227 52.6894C126.544 52.6894 125.866 52.6679 125.188 52.6249C124.51 52.5818 123.811 52.485 123.079 52.3289V40.2663C123.655 40.1587 124.284 40.078 124.962 40.0242C125.646 39.9704 126.28 39.9435 126.867 39.9435C127.658 39.9435 128.384 40.0027 129.046 40.1157C129.708 40.2286 130.283 40.4223 130.762 40.6967C131.241 40.9711 131.618 41.3316 131.887 41.7835C132.156 42.2301 132.29 42.7843 132.29 43.4461C132.29 44.4414 131.811 45.2216 130.854 45.7973C131.645 46.0986 132.183 46.5021 132.468 47.0186C132.753 47.5351 132.898 48.1162 132.898 48.7618C132.898 50.0692 132.425 51.0484 131.472 51.7048C130.525 52.3558 129.105 52.6894 127.227 52.6894ZM125.812 44.9687H127.179C128.04 44.9687 128.658 44.8557 129.03 44.6351C129.401 44.4145 129.584 44.0594 129.584 43.5644C129.584 43.064 129.39 42.709 129.008 42.5045C128.626 42.3001 128.061 42.1978 127.319 42.1978C127.077 42.1978 126.824 42.2032 126.544 42.2086C126.27 42.214 126.022 42.2301 125.807 42.2516V44.9687H125.812ZM125.812 47.1047V50.3167C126.017 50.3382 126.237 50.3598 126.474 50.3705C126.711 50.3813 126.974 50.3867 127.265 50.3867C128.104 50.3867 128.777 50.2683 129.293 50.0262C129.81 49.7894 130.068 49.3429 130.068 48.6972C130.068 48.1215 129.853 47.7126 129.422 47.4651C128.992 47.2176 128.373 47.0993 127.572 47.0993H125.812V47.1047Z" fill="#179F91"/>
<path d="M143.315 52.5227C143.175 52.0923 143.03 51.6457 142.868 51.1884C142.707 50.7311 142.551 50.2791 142.395 49.8272H137.536C137.38 50.2791 137.219 50.7364 137.063 51.1938C136.907 51.6511 136.756 52.0923 136.622 52.5227H133.711C134.179 51.183 134.626 49.9455 135.045 48.8049C135.465 47.6697 135.874 46.599 136.277 45.5929C136.681 44.5867 137.074 43.6344 137.466 42.7305C137.859 41.8266 138.263 40.9443 138.682 40.0834H141.335C141.744 40.9443 142.147 41.8266 142.545 42.7305C142.944 43.6344 143.342 44.5867 143.745 45.5929C144.149 46.599 144.558 47.6697 144.983 48.8049C145.402 49.9402 145.849 51.183 146.317 52.5227H143.315ZM139.947 42.9027C139.882 43.0856 139.791 43.3278 139.672 43.6398C139.554 43.9519 139.414 44.3123 139.263 44.7159C139.107 45.1248 138.941 45.5713 138.747 46.0609C138.559 46.5506 138.365 47.0671 138.166 47.6051H141.722C141.534 47.0671 141.346 46.5506 141.168 46.0609C140.99 45.5713 140.818 45.1194 140.657 44.7105C140.495 44.3016 140.356 43.9465 140.232 43.6344C140.119 43.3224 140.022 43.0803 139.947 42.9027Z" fill="#179F91"/>
<path d="M153.134 52.7755C151.111 52.7755 149.572 52.2106 148.512 51.0861C147.452 49.9616 146.925 48.3637 146.925 46.2923C146.925 45.2646 147.086 44.3446 147.409 43.5375C147.732 42.7305 148.173 42.0472 148.738 41.493C149.303 40.9389 149.97 40.5138 150.75 40.2287C151.53 39.9435 152.37 39.7982 153.284 39.7982C153.812 39.7982 154.29 39.8359 154.721 39.9166C155.151 39.9973 155.528 40.0834 155.851 40.1856C156.174 40.2878 156.443 40.3901 156.658 40.4977C156.873 40.6053 157.029 40.6914 157.126 40.7505L156.319 43.0103C155.937 42.8058 155.49 42.6336 154.979 42.4884C154.468 42.3431 153.892 42.2732 153.247 42.2732C152.816 42.2732 152.391 42.3431 151.982 42.4884C151.568 42.6336 151.202 42.865 150.885 43.1771C150.567 43.4945 150.314 43.9034 150.121 44.4091C149.927 44.9095 149.836 45.5229 149.836 46.2384C149.836 46.8141 149.9 47.3468 150.024 47.8472C150.148 48.3422 150.352 48.7726 150.632 49.1331C150.912 49.4935 151.283 49.7787 151.735 49.9832C152.192 50.193 152.741 50.2952 153.387 50.2952C153.795 50.2952 154.161 50.2737 154.484 50.2253C154.807 50.1768 155.092 50.123 155.345 50.0531C155.598 49.9885 155.818 49.9132 156.007 49.8271C156.2 49.741 156.373 49.6657 156.529 49.5958L157.298 51.8393C156.905 52.0761 156.346 52.2967 155.63 52.485C154.915 52.6787 154.081 52.7755 153.134 52.7755Z" fill="#179F91"/>
<path d="M166.428 52.5227C166.175 52.1192 165.879 51.678 165.535 51.2099C165.191 50.7418 164.825 50.263 164.427 49.7895C164.034 49.3107 163.62 48.8533 163.184 48.4175C162.753 47.9817 162.318 47.5943 161.887 47.2554V52.5227H159.084V40.0834H161.887V44.7589C162.608 44.0003 163.34 43.2094 164.082 42.3862C164.825 41.563 165.513 40.7936 166.143 40.0834H169.468C168.623 41.0896 167.768 42.0634 166.912 42.9942C166.057 43.925 165.153 44.8611 164.206 45.8027C165.201 46.6313 166.159 47.6159 167.085 48.7565C168.01 49.8971 168.898 51.1507 169.753 52.5281H166.428V52.5227Z" fill="#179F91"/>
<path d="M32.8037 0C14.6882 0 0 14.6882 0 32.8037C0 50.9192 14.6882 65.6075 32.8037 65.6075C50.9192 65.6075 65.6075 50.9192 65.6075 32.8037C65.6075 14.6828 50.9246 0 32.8037 0ZM45.017 51.4734L41.5306 42.9241L39.443 37.7967L38.2109 34.7783L36.118 29.6563L33.0674 22.1776L30.0167 29.6563L27.9292 34.7783L26.6917 37.7967L24.6042 42.9241L21.1177 51.4734H15.5867L19.0732 42.9241H17.1847V37.7967H21.1607L22.3928 34.7783H17.1847V29.6563H24.4858L30.3019 15.3877L32.9759 8.83446L33.0674 8.79142L33.1588 8.83446L35.8382 15.3931L41.6543 29.6563H48.1161V34.7783H43.7419L44.9794 37.7967H48.1161V42.9241H47.0669L50.5534 51.4734H45.017Z" fill="#00245B"/>
</svg>
