<svg width="118" height="117" viewBox="0 0 118 117" fill="none" xmlns="http://www.w3.org/2000/svg">
<path d="M58.9502 0.000976562C26.6442 0.000976562 0.450195 26.195 0.450195 58.501C0.450195 90.8069 26.6442 117.001 58.9502 117.001C91.2562 117.001 117.45 90.8069 117.45 58.501C117.45 26.1854 91.2658 0.000976562 58.9502 0.000976562ZM80.7306 91.7952L74.5131 76.549L70.7903 67.405L68.5931 62.0223L64.8607 52.888L59.4204 39.5511L53.9801 52.888L50.2572 62.0223L48.0504 67.405L44.3276 76.549L38.1101 91.7952H28.2466L34.4641 76.549H31.0963V67.405H38.1869L40.3841 62.0223H31.0963V52.888H44.1165L54.4886 27.4423L59.2572 15.7558L59.4204 15.679L59.5835 15.7558L64.3617 27.4519L74.7338 52.888H86.2572V62.0223H78.4566L80.6634 67.405H86.2572V76.549H84.3862L90.6037 91.7952H80.7306Z" fill="white"/>
</svg>
