<svg width="24" height="24" viewBox="0 0 24 24" fill="none" xmlns="http://www.w3.org/2000/svg">
<path d="M24 12.001C24 5.37358 18.6274 0.00100327 12 0.00100327C5.37258 0.00100327 0 5.37358 0 12.001C0 17.9906 4.38823 22.955 10.125 23.8552V15.4698H7.07813V12.001H10.125V9.35725C10.125 6.34975 11.9165 4.6885 14.6576 4.6885C15.9705 4.6885 17.3438 4.92288 17.3438 4.92288V7.876H15.8306C14.3399 7.876 13.875 8.80101 13.875 9.75V12.001H17.2031L16.6711 15.4698H13.875V23.8552C19.6118 22.955 24 17.9906 24 12.001Z" fill="#1877F2"/>
<path d="M16.6711 15.4697L17.2031 12.001H13.875V9.74997C13.875 8.80098 14.3399 7.87598 15.8306 7.87598H17.3438V4.92285C17.3438 4.92285 15.9705 4.68848 14.6576 4.68848C11.9165 4.68848 10.125 6.34973 10.125 9.35723V12.001H7.07812V15.4697H10.125V23.8552C10.7359 23.9511 11.3621 24.001 12 24.001C12.6379 24.001 13.2641 23.9511 13.875 23.8552V15.4697H16.6711Z" fill="white"/>
</svg>
